<?xml version="1.0" encoding="UTF-8"?>
<!DOCTYPE svg PUBLIC "-//W3C//DTD SVG 1.1//EN" "http://www.w3.org/Graphics/SVG/1.1/DTD/svg11.dtd">
<!-- Creator: CorelDRAW 2019 (64-Bit) -->
<svg xmlns="http://www.w3.org/2000/svg" xml:space="preserve" width="40.5626mm" height="40.5626mm" version="1.1" style="shape-rendering:geometricPrecision; text-rendering:geometricPrecision; image-rendering:optimizeQuality; fill-rule:evenodd; clip-rule:evenodd"
viewBox="0 0 4055.2 4055.2"
 xmlns:xlink="http://www.w3.org/1999/xlink">
 <defs>
  <style type="text/css">
   <![CDATA[
    .str0 {stroke:#2B2A29;stroke-width:7.62;stroke-miterlimit:22.9256}
    .fil1 {fill:none}
    .fil5 {fill:#2B2A29}
    .fil0 {fill:#FECC00}
    .fil4 {fill:#00A0E3}
    .fil3 {fill:#2B2A29;fill-rule:nonzero}
    .fil2 {fill:#2B2A29;fill-rule:nonzero}
   ]]>
  </style>
    <clipPath id="id0">
     <path d="M2027.6 544.49c819.1,0 1483.11,664.02 1483.11,1483.11 0,819.1 -664.02,1483.11 -1483.11,1483.11 -819.1,0 -1483.11,-664.02 -1483.11,-1483.11 0,-819.1 664.02,-1483.11 1483.11,-1483.11z"/>
    </clipPath>
 </defs>
 <g id="Layer_x0020_1">
  <metadata id="CorelCorpID_0Corel-Layer"/>
  <g id="_1782250399888">
   <g>
   </g>
   <g style="clip-path:url(#id0)">
    <g id="_1781059539056">
     <g>
      <path class="fil0" d="M1390.17 1193.51c-19.29,-42.45 44.67,-65.22 61.61,-29.06 20.04,42.78 -41.74,72.77 -61.61,29.06zm56.84 -73.98c-21.51,-0.94 -26.54,-9.19 -51.67,1.45 -13.73,5.81 -25.36,17.31 -31.25,28.53 -36.07,68.69 56.63,129.41 105.38,73.65 28.8,-32.95 13.24,-55.38 1.76,-87.09 30.88,-24.22 59.75,-61.22 89.9,-88.74 14.78,-13.49 57.25,-7.42 82.93,-7.43l133.8 -0.08c20.9,-0.22 25.71,-3.37 37.3,7.32 15.05,13.88 28.79,29.32 43.79,44.24 25.82,25.66 14.25,24.57 63.09,24.38 92.22,-0.37 228.41,-2.97 313.47,-0.22 26.19,0.84 38.06,23.66 72.86,57.8 16.26,15.95 29.52,29.83 45.53,45.89 18.84,18.89 21.66,32.32 57.15,32.01l355.52 -0.14c28.55,0 154.57,-6.56 169.89,8.32 76.17,73.96 46.34,64.75 115.13,64.72l355.4 0c184.46,0 148.65,-19.38 216.73,50.35 23.95,24.52 28.17,16.71 71.81,16.7 58.85,0 117.72,0.04 176.51,0l-0.01 -29.88c-61.17,0.3 -122.39,-0.27 -183.56,0.02 -44.8,0.22 -37.81,-0.36 -63.04,-27.18 -15.72,-16.7 -33.03,-37.97 -49.29,-39.75l-542.4 0.23c-20.93,0.09 -21.58,-0.73 -32.52,-11.81 -21.78,-22.06 -50.94,-60.04 -72.53,-61.62 -51.08,-3.73 -287.24,0.16 -359.18,0.16 -28.45,0 -161.54,6.44 -176.79,-5.72l-89.42 -90.06c-12.32,-12.22 -31.09,-38.58 -50.49,-39.86 -51.04,-3.37 -340.62,5.07 -357.54,-2.02 -5.21,-2.17 -40.22,-38.62 -46.79,-45.3 -24.29,-24.71 -16.41,-28.63 -63.64,-28.3l-179.47 0.03c-47.87,-0.03 -43.89,-6.87 -68.49,20.09l-89.86 89.3z"/>
      <path class="fil0" d="M2639.87 2909.3c-47.04,6.69 -53.06,-64.12 -10.03,-68.65 46.04,-4.84 52.56,62.6 10.03,68.65zm-56.09 9.61l-88.03 87.18c-10.7,10.3 -11.63,9.55 -31.61,9.43 -34.91,-0.22 -206.75,4.9 -220.43,-4.3 -47.12,-31.67 -39.39,-72.36 -103.46,-71.81l-309.82 0.2c-36.85,0.33 -29.22,-3.33 -81.61,-56.2l-66.57 -67.04c-11.87,-12.39 -11.35,-12.49 -34.51,-12.44l-443.53 0.22c-24.87,-0.01 -68.95,6.25 -83.68,-6.63 -14.31,-12.5 -29.42,-30.08 -43.66,-44.39 -26.82,-26.94 -16.09,-22.22 -66.19,-22.1 -77.38,0.19 -517.28,4.46 -531.19,-3.43 -4.73,-2.69 -37.44,-36.89 -44.14,-43.77 -26.75,-27.51 -22.47,-19.82 -72.13,-19.81 -59.93,0 -120.03,-0.44 -179.95,0.13l-0.06 29.38c68.02,1.99 141.6,-3.47 208.35,0.09 18.91,1.01 37.24,25.75 57.84,46.6 11.08,11.21 13.64,19.42 33.14,20.71 15.61,1.03 36.83,-0.18 53.11,-0.18 139.57,0 279.16,0 418.73,0 26.46,0 78,-7.57 94.5,6.27 88.17,73.99 23.02,66.84 144.78,66.84l422.26 0c55.74,-0.15 43.26,2.08 73.21,31.91 13.72,13.67 96,99.34 104.76,102.27 10.29,3.44 263.49,1.23 311.13,1.22 66.47,-0.02 45.75,-9.53 107.25,52.47 8.66,8.73 15.35,20.86 29.93,23.17l207.66 0.17c67.95,0.05 44.33,3.85 130.18,-81.48 4.36,-4.33 23.22,-24.33 26.81,-25.8 9.82,-4.02 29.5,3.46 45.32,-0.85 59.37,-16.2 57.51,-101.32 6.13,-121.88 -34.05,-13.64 -65.48,5.51 -77.23,22.88 -23.28,34.44 -6.82,53.04 2.73,80.96z"/>
      <path class="fil0" d="M2639.87 1565.92c-25.94,2.05 -25.94,-35.45 -3.03,-36.77 22.93,-1.32 26.51,34.92 3.03,36.77zm-229.84 207.81c-23.75,17.96 -44.47,-0.72 -26.93,-28.81l25.59 3.38c2.84,8.35 4.06,14.44 1.34,25.43zm-288.7 201.34c-11.13,-36.1 43.31,-48.8 53.03,-16.44 10.71,35.62 -41.42,54.03 -53.03,16.44zm-220.95 -216c25.64,-13.31 43.16,6.48 30.22,23.41 -12.29,16.08 -39.03,8.72 -30.22,-23.41zm41.93 18.06c21.19,0.32 85.57,4.54 99.65,-2.81 23.24,-12.13 23.04,-42.88 62.82,-42.95 69.24,-0.1 138.57,0.25 207.85,0.25 32.91,-0.09 28.67,-3.59 44.55,-21.9 19.08,-22.01 12.39,-19.53 50.46,-19.53 89.93,0 71.97,13.25 118.55,-33.15 11.75,-11.71 25.66,-34.5 46.83,-34.5l299.1 -0.01c36.37,-0.05 32.66,5.02 50.74,23.63 19.33,19.92 23.91,14 58.33,13.95 50.74,-0.08 101.89,0.66 152.55,-0.2 -4.84,8.75 -0.47,2.45 -6.97,9.99l-51.77 47.32c-23.29,8.12 -131.71,2.06 -167.73,1.88 -25.1,-0.13 -32.22,-4.51 -46.01,9.11 -6,5.92 -22.82,25.26 -27.88,28.39 -9.62,5.95 -38.23,6.92 -50.64,1.49 -3.66,-1.6 -25.62,-21.75 -30.32,-26.06 -14.39,-13.16 -11.19,-17.86 -38.42,-17.76l-169.16 0.19c-51.11,-0.31 -40.47,7.25 -73.54,39.12 -13.8,13.29 -20.93,8.88 -46.08,8.92 -9.86,-9.84 -9.44,-22.73 -25.71,-25.91 -38.12,-7.45 -42.29,49.04 -9.28,52.59 24.1,2.59 21.49,-11.78 34.99,-18.46 53.63,0.17 44.18,-4.7 72.15,-33.4 22.17,-22.74 43.14,-14.56 93.23,-14.57 36.36,-0.01 72.8,0.24 109.15,-0.05 44.36,-0.35 41.27,9.02 69.1,36.87l-164.18 0.9c-31.52,-0.02 -43.36,21.28 -71.69,51.17 -17.07,18 -19.54,13.17 -51.47,13l-126.85 0.21c-44.2,0.52 -19.03,-16.64 -45.82,-19.44 -20.82,-2.19 -33.16,19.69 -21.43,35.99 15.76,21.91 33.7,2.61 42.79,-7.8 50.27,-3.56 114.1,-1.14 165.53,-0.54 36.93,0.43 32.62,-6.92 52.73,-27.05 8.92,-8.93 31.58,-35.81 45.82,-37.41 42.07,-4.73 119.34,0.02 165.23,0.02 19.69,0 62.94,5.05 77.2,-4.8 16.9,-11.67 22.35,-36.43 49.48,-36.43l172.41 0.03c45.13,0.03 59.91,-54.23 89,-65.27 13.09,-4.97 130.08,-2.03 153.8,-2.03 25.48,-0.08 23.41,0.8 36.56,14.35 5.48,5.65 18.4,16.47 21.66,24.12l-103.97 0.29c-34.96,0 -36.62,5.51 -54.49,24.4l-38.13 39.3c-19.16,19.12 -34.74,13.01 -65.72,13.02 -175.23,0.03 -125.81,-21.68 -227.63,80.71 -20.97,21.1 -15.39,27.5 -53.88,27.5l-182.97 0c-29.97,0 -26.52,5.23 -42.16,20.67 -67.81,66.96 -38.61,62.31 -137.3,62.31 -87.37,0 -176.22,1.59 -263.41,-0.14 -17.66,-62.7 -79.48,-42.71 -82.55,-2.29 -1.77,23.37 14.59,41.87 36.33,43.73 29.6,2.53 35.43,-14.92 45.73,-32.13 83.52,-6.48 225.88,-0.57 320.43,-0.53 23.46,0.01 23.41,-2.35 34.91,-14.69 69.36,-74.47 58.97,-68.85 116.17,-68.85 61.58,0.01 126.84,2.08 187.95,-0.45 23.58,-33.34 62.25,-59.84 88.76,-90.27 25.04,-28.75 40.94,-17.26 96.28,-17.26 24.63,0 49.27,-0.03 73.9,0.01 60.66,0.1 45.31,-1.06 95.52,-51.32 34.97,-35.02 26.42,-25.6 119.13,-25.7 18.29,-0.01 41.78,-4.16 54.2,6.1 18.33,15.13 3.19,13.11 37.29,13.11l422.28 -0.04c11.55,0.14 26.72,2.26 35.67,-4.57 -19.47,-12.38 -451.73,5.88 -480.3,-5.89 -6.32,-2.6 -35.38,-33.15 -41.4,-39.47 -23.63,-24.81 -17.59,-24.51 -59.4,-24.5l-299.09 0c-66.71,0.04 -53.44,-3.44 -97.33,-47.45 -12.62,-12.65 -22.66,-22.7 -35.08,-35.31 -15.56,-15.8 -15.72,-24.5 -46.88,-24.38 -47.97,0.19 -96.51,0.89 -144.43,0.09 -9.36,-10.35 -9.06,-20.84 -25.3,-23.37 -37.48,-5.84 -41.37,48.45 -9.44,52.58 20.32,2.62 25.2,-8.03 31.48,-20.39l154.56 -0.2c17.89,0 28.72,18.02 38.49,27.76 10.88,10.87 23.23,24.28 33.16,32.81l-314.45 0.76c-30.96,-0.02 -54.85,34.87 -73.48,54.66 -12.21,12.96 -8.38,12.68 -28.56,12.68l-432.81 -0.02c-7.62,-9.6 -8.83,-17.07 -22.04,-18.85 -43.7,-5.91 -22.34,81.42 22.04,27.63l320.63 -0.42c-2.86,6.46 -23.55,27.99 -28.74,30.81 -13.57,7.38 -42.74,2.57 -59.64,2.57 -42.76,0 -144.79,-3.88 -183.24,-0.07 -18.81,1.87 -27.12,16.88 -37.27,27.27 -16.13,16.52 -11.39,18.58 -43.3,18.25 -21.15,-0.22 -42.29,-0.07 -63.43,-0.22 -9.5,-9.95 -10.97,-22.25 -28.35,-23.33 -16.36,-1.02 -28.24,9.62 -28.9,25.3 -1.33,31.27 40.77,41.47 52.89,6.36z"/>
      <path class="fil0" d="M2143.72 2301.18c-26.46,4.32 -30.43,-30.14 -8.8,-35.92 24.02,-6.42 32.05,32.12 8.8,35.92zm-228.72 -186.73c-39.35,8.43 -47.07,-48.03 -13.03,-54.31 38.18,-7.04 44.94,47.48 13.03,54.31zm-243.16 193.86c-39.72,9.31 -40.23,-36.15 -2.98,-33.36l9.84 9.25c0.95,13.34 -1.7,17.17 -6.86,24.11zm-273.03 204.64c1.38,-33.73 33.09,-27.28 36.6,-9.37 3.9,19.96 -19.6,33.31 -36.6,9.37zm-15.15 -2.44c14.03,4.93 3.48,2.64 13.06,14.3 5.28,6.41 10.51,10.01 21.95,9.61 41.68,-1.5 26.56,-71.74 -14.63,-50.32 -24.69,12.84 8.48,17.9 -41.5,17.9 -127.86,0.18 -120.31,17.18 -165.15,-27.81 -8.34,-8.37 -26.84,-24.79 -31.96,-33.93 29.01,0.72 320.09,5.18 336.03,-2.49 8.83,-4.26 46.41,-47.71 58.24,-58.1 14.61,-12.85 190.57,-6.51 221.56,-6.51 76.24,0 152.48,-0.01 228.72,0.01 13.57,5.82 8.21,16.67 25.57,19 30.51,4.09 33.63,-45.13 2.63,-45.05 -20.1,0.04 -14.65,11.89 -28.2,17.61l-317 0.02c24.72,-41.31 46.58,-33.09 88.28,-33.09 40.99,0 146.83,3.88 183.18,0.07 38.32,-4.02 24.63,-46.05 80.63,-45.54 21.14,0.2 42.29,0.2 63.43,0.15 9.09,9.53 11.74,22.19 28.38,23.32 34.63,2.35 38.55,-49.36 6.22,-52.88 -19.32,-2.1 -23.63,7.63 -31.08,20.08 -27.16,3.59 -57.96,-1.26 -84.63,0.95 -21.49,1.79 -34.61,27.4 -48.58,38.81 -16.84,13.76 -137.33,6.98 -165.89,6.98 -25.62,0 -60.16,-2.03 -84.63,-0.18 -25.7,1.94 -30.68,31.71 -48,39.26 -13.58,5.91 -63.12,2.14 -82.04,2.02 -46.71,-0.31 -38.13,2.15 -62.37,26.29 -58.82,58.57 -41.55,41.3 -131.15,41.3 -26.31,0 -238.57,5.28 -253.12,-3.85 -20.02,-12.55 -16.23,-33.43 -52.75,-33.4 -59.03,0.04 -118.07,0.27 -177.11,0.07 4.54,-9.01 0.15,-2.25 6.59,-9.82l22.17 -20.23c5.34,-4.82 26.03,-24.9 29.99,-26.59 21.47,-9.16 132.39,-2.41 167.39,-2.24 67.58,0.33 34.54,-13.03 74.03,-37.48 9.44,-5.85 37.75,-7.12 50.59,-1.67 29.86,12.66 28.22,43.73 68.65,43.56l169.16 -0.19c52.04,0.34 39.72,-7.31 73.4,-38.9 14.55,-13.65 23.4,-8.81 46.22,-9.03 8.99,9.16 8.9,21 23.07,25.34 57.76,17.69 34.07,-97.22 -19.55,-34.13 -58.01,2.77 -44.12,1.2 -75.81,34.12 -21.73,22.57 -49.85,14.43 -93.09,14.43 -36.36,0 -72.81,-0.26 -109.15,0.04 -45.13,0.36 -40.47,-8.77 -69.39,-36.49 33.72,-4.08 86.44,-1.06 122.24,-1.05 73.83,0.03 55.06,7.41 94.53,-31.91 39.28,-39.12 33.71,-32.23 91.98,-32.23 42.22,0 84.46,0.12 126.68,-0.06 19.97,13.69 11.36,30.01 46.89,13.07 4.37,-15.57 4.57,-31.45 -11.05,-37.41 -19.71,-7.53 -23.8,9.51 -35.84,16.1 -51.59,-0.02 -103.3,0.29 -154.87,-0.08 -65.62,-0.48 -44.95,27.4 -93.38,60.09 -15.69,10.58 -188.2,4.4 -226.93,4.11 -32.11,-0.25 -35.72,12.34 -50.69,28.21 -17.67,18.74 -39.29,13.18 -65.29,13.17 -25.8,-0.01 -51.61,0 -77.42,0 -95.15,0 -77.49,-3.84 -134.88,57.49 -16.32,17.43 -65.48,9.89 -107.9,9.89 -16.41,0 -64.28,2.68 -76.7,-1.48 -7.16,-2.39 -33.22,-27.47 -37.81,-37.26l137.28 -0.13c9.9,-21.64 41.63,-42.68 58.83,-60.62 7.98,-8.32 10.59,-14.99 27.17,-16.29 46.06,-3.62 114.26,-0.14 162.36,0.4 36.67,0.41 51.17,-28.06 91.89,-68.56 56.43,-56.09 40.88,-40.05 126.08,-40.05l119.79 0.12c39.35,0.39 37.63,-12.68 73.72,-48.73 12.29,-12.27 24.68,-33.23 45.63,-34.59 69.52,-4.48 245.44,0.2 327.1,0.2 16.09,61.92 79.55,44.41 82.28,2.69 3,-45.79 -57.21,-67.04 -81.42,-11.11l-306.73 -0.04c-49.9,-0.39 -39.92,6.71 -78.88,44.87 -53.81,52.7 -25.98,38.16 -149.82,38.16 -132.1,0 -98.03,-23.06 -183.39,61.51 -63.31,62.72 -18.31,47.28 -200.16,47.06 -55.98,-0.07 -47.62,2.63 -83.46,38.76 -54.04,54.49 -40.15,37.49 -145.28,38.28 -48.12,0.36 -24.75,0.37 -48.85,-15.25 -16.44,-10.66 -376.52,-3.26 -457.94,-4.35 -10.91,-0.15 -21.05,-1.15 -28.46,4.94l17.79 3.66c84.12,3.52 234.38,-0.26 320.44,-0.26l127.03 -0.27c25.75,0.96 46.9,34.47 72.08,58.11 16.34,15.35 55.25,8.61 78.88,8.62 96.26,0.05 203.76,-3.81 299.39,-0.24 25.19,0.93 47.25,33.25 72.38,58.29 68.49,68.19 31.85,48.86 212.34,48.86z"/>
      <path class="fil0" d="M1591.27 1995.82c-33.42,8.03 -41.9,-39.06 -13.42,-45.48 34.25,-7.72 39.1,39.3 13.42,45.48zm-100.55 -380.47c19.94,28.81 57.42,57.08 72.86,73.99 9.24,10.13 5.96,24.73 5.87,42.67 -0.33,65.91 0.27,131.88 -0.07,197.79 -58.7,34.83 -24.12,88.29 14.9,88.22 24.05,-0.04 43.48,-18.79 44.2,-43.17 0.86,-29.03 -17.06,-37.36 -33.2,-46.48l-4.61 -2.81c-0.7,-66.63 -0.42,-133.92 -0.08,-200.59 0.29,-57.85 -10.86,-46.23 -80.99,-118.83 -18.45,-19.1 -36.46,-12.06 -87.23,-12.06l-306.13 0.04c-109.21,-0.06 -69.82,-15.73 -143.78,57.42 -15.89,15.71 -50.55,9.3 -91.98,9.3l-302.64 0.01c-51.29,0.29 -43.04,-6.81 -93.2,-57.28 -8.22,-8.27 -20.86,-16.35 -22.91,-26.8 -21.84,-2.24 -266.35,-4.7 -274.79,0.62 -1.42,0.9 -8.45,-10.07 -5.17,10.03 1.93,11.84 -1.34,4.75 8.2,8.32l247.28 0.27c17.9,0.57 8.18,-3.39 31.39,20.08 10.15,10.27 17.83,18.06 28.06,28.2 43.29,42.9 29.06,38.07 70.57,37.73l383.79 0.14c27.54,0.2 24.67,-2.34 38.88,-16.66 66.49,-67 34.41,-50.28 168.53,-50.29 36.36,0 72.72,0 109.08,0 74.31,0 148.9,-0.59 223.17,0.12z"/>
      <path class="fil0" d="M2482.35 2059.57c7.36,8.6 17.35,16.61 10.62,31.98 -4.72,10.82 -16.92,17.4 -31.12,12.42 -17.91,-6.27 -27.21,-49.92 20.5,-44.4zm97.69 380.39c-21.17,-0.01 -20.28,-5.4 -32.33,-17.58 -8.38,-8.48 -14.34,-14.52 -22.78,-22.97 -26.56,-26.58 -39.17,-30.92 -39.17,-55.13l-0.21 -218.94c17.47,-10.35 36.52,-21.88 29.76,-53.9 -11.25,-53.26 -94.33,-41.6 -88.67,15.16 2.17,21.74 15.73,29.68 26.54,36.05 12.12,7.14 6.07,-2.44 11.45,10.51l-0.02 211.12c0,27.91 1.04,25.35 15.8,39.83 10.43,10.23 18.16,17.77 28.27,28.05 10.21,10.37 18.06,17.81 28.14,28.15 11.1,11.38 14.11,20.81 36.18,20.77l425.78 0.01c36.08,-0.16 28.42,-1.69 47.2,-20.39 11.5,-11.45 20.25,-19.89 31.37,-31.95 17.77,-19.26 17.46,-14.63 51.61,-14.49l320.23 0.02c74.82,0 56.82,-7.32 96.82,32.61 43.01,42.93 41.47,53.36 79,52.96l225.66 0.37c24.57,0.03 20.51,3.93 22.9,-12.79 -1.68,-11.47 5.48,-9.46 -33.77,-8.62 -12.92,0.27 -25.83,0.11 -38.74,0.1 -25.8,-0.03 -51.62,0.04 -77.42,0 -140.31,-0.21 -100.55,16.22 -170.42,-53.24 -32.93,-32.74 -17.49,-32.54 -79.41,-32.48l-330.77 -0.01c-62.71,-0.01 -53.01,-8.25 -86.51,25.31 -45.09,45.18 -31.98,41.5 -68.31,41.5l-408.18 -0.05z"/>
      <path class="fil0" d="M2307.29 2517.84c-12.32,-42.7 51.03,-56.99 63.61,-20.38 15.3,44.53 -50.9,64.5 -63.61,20.38zm1571.19 85.51l0 -21.11c-152.46,-0.44 -304.98,-0.04 -457.44,-0.04 -34.13,0 -207.71,-6.23 -225.36,4.58l-110.79 113.62c-47.87,0.88 -414.54,4.34 -428.2,-3.2 -5.89,-3.26 -46.24,-45.78 -54.89,-54.41 -8.49,-8.47 -17.72,-19.38 -26.23,-26.63 -14.04,-11.97 -75.98,-6.39 -97.71,-6.25 -38.66,0.25 -37.03,-20.19 -91.33,-68.56 6.33,-31.17 15.66,-54.66 -12.47,-75.5 -22.17,-16.43 -56.05,-12.95 -73.34,3.75 -40.03,38.64 -5.04,114.13 68.2,86.59 43.91,31.98 58.11,74.6 91.32,75.26 110.13,2.18 88.47,-13.78 136.02,34.44 9.71,9.86 48.28,52.02 58.28,54.83 18.69,5.24 190.69,0.99 224.6,0.99 242.43,0 187.8,24.64 273.94,-61.25 10.19,-10.16 48.73,-52.23 57.81,-55.42 11.84,-4.16 624.8,-1.71 667.58,-1.68z"/>
      <path class="fil0" d="M1685.94 1559.01c-20.92,-41.75 47.27,-66.24 61.26,-24.97 13.4,39.47 -40.18,67.03 -61.26,24.97zm-1509.22 -107.2l0 21.08c146.01,2.03 293.68,0.33 439.85,0.11 72.7,-0.1 149.88,2.64 221.94,0.25 28.49,-0.95 49.31,-33.13 63.41,-47.06 19.68,-19.44 37.12,-36.36 56.3,-56.24 22.44,-23.24 35.51,-15.53 94.68,-15.53 88.97,0 261.12,-4.82 331.07,-0.23 20.91,1.38 38.03,26.27 60.87,49.16 10.12,10.14 17.85,17.84 27.94,28.32 15.57,16.19 15.86,13.6 44.56,13.3 17.64,-0.18 35.27,0.07 52.91,-0.11 45.49,-0.46 31.27,4.68 98.42,68.98 -5.97,30.54 -16.54,50.77 10.79,73.72 19.88,16.72 52.89,18.32 73.04,-0.43 42.03,-39.08 7.82,-117.3 -66.22,-88.17 -94.63,-78.29 -35.7,-75.29 -144.27,-75.18 -62.33,0.06 -47.87,0.65 -81.11,-32.92 -8.73,-8.81 -50.85,-53.16 -57.4,-55.72 -16.32,-6.35 -435.08,-2.83 -443.07,1.53 -9.78,5.34 -99.64,103.82 -111.28,110.95 -16.44,10.07 -188.32,4.21 -222.01,4.21 -150.13,0 -300.27,-0.04 -450.4,-0.04z"/>
      <path class="fil0" d="M1527.16 1256.35c-9.72,-38.83 47.86,-49.46 56.96,-16.07 11.19,41.09 -46.64,57.31 -56.96,16.07zm67.63 0.73c28.54,-4.45 193.03,-1.84 242.88,-1.37 40.01,0.36 36.97,-6.56 56.75,-26.36 8.53,-8.54 32.24,-36.16 42.3,-39.21l245.72 -1.18c57.85,-0.05 37.4,-10.76 105.41,57.66 57.2,57.54 51.68,66.71 98.63,66.39 110.17,-0.75 220.6,-0.06 330.8,-0.06 53.96,0 107.91,0.08 161.87,0.01 39.49,-0.05 44.53,-6.79 65.88,15.38 8.93,9.27 33.72,36.55 42.04,42.41 13.12,9.24 411.64,4.35 483.23,4.35 80.15,0 57.06,-10.1 116.67,50.26 56.66,57.36 31.67,42.95 122.6,42.96 14.02,0.01 150.19,3.87 162.36,-3.72 -17.01,-13.21 -213.77,3.21 -237.48,-6.34 -5.66,-2.28 -36,-34.45 -42.71,-41.21 -14.07,-14.19 -26.17,-26.88 -40.31,-40.67 -15.48,-15.1 -41.42,-9.63 -70.58,-9.63 -73.11,0.01 -474.25,5.4 -489,-4.28 -23.45,-15.4 -42.07,-54.87 -66.67,-57.63 -10.59,-1.19 -30.87,0.05 -42.51,0.07l-492.71 0.03c-40.32,0.38 -34.22,-3.49 -55.11,-24.38l-80.88 -81.04c-24.54,-25.04 -18.45,-18.89 -64.5,-18.85l-243.08 -0.3c-19.1,0.23 -18.75,2.16 -28.69,12.43l-40.32 40.62c-10.72,11.07 -8.45,13.42 -28.93,14.09l-253.3 -4.78 -10.5 -17.75c-5.55,-6.55 -14.32,-12.08 -25.53,-12.92 -22.52,-1.67 -39.98,14 -41.49,34.76 -2.65,36.39 49.49,69.49 77.17,10.26z"/>
      <path class="fil0" d="M2514.24 2777.16c0.04,0.02 11.16,12.44 12.35,15.37 3.74,9.11 3.64,16.2 -0.16,25.24 -6.03,14.32 -24.97,22 -42.46,13.4 -32.91,-16.22 -5.45,-72.11 30.27,-54.01zm-52.85 30.82c7.8,51.11 72.85,42.77 76.19,0.44 2.95,-37.32 -50.08,-68.88 -77.18,-10.22 -28.68,4.41 -192.89,1.77 -242.88,1.33 -40.52,-0.36 -36.54,6.73 -56.61,26.45 -51.14,50.27 -27.31,40.22 -122.77,40.22 -55.13,0 -110.26,-0.07 -165.39,-0.01 -59.39,0.07 -36.98,10.34 -105.31,-57.66 -58.45,-58.15 -51.19,-66.76 -98.73,-66.32l-492.67 0.03c-39.35,0.03 -44.83,6.84 -65.97,-15.31 -8.87,-9.29 -33.44,-36.51 -41.83,-42.57 -13.81,-9.97 -430.67,-4.45 -483.35,-4.45 -23.45,0 -59.52,5.63 -74.49,-7.79 -123.13,-110.41 -13.25,-83.6 -287.95,-85.26 -11.94,-0.07 -29,-2.7 -39.09,3.73 0.77,0.6 1.1,1.25 2.55,1.42l156.2 3.17c103.77,0 66.19,-12.16 162.01,83.31 15.29,15.24 41.11,9.74 70.23,9.74 73.27,-0.01 473.88,-5.51 489.01,4.45 5.07,3.35 33.87,33.72 40.37,40.52 22.08,23.12 19.06,17.11 68.8,17.09l492.71 -0.06c41.23,-0.33 33.63,3.08 55.12,24.47l82.64 82.74c23.59,24.1 22,17.15 66.25,17.12l243.02 0.28c19.09,-0.76 27.96,-15.24 47.99,-35.5 41.75,-42.23 17.84,-31.36 134.77,-31.36 55.46,0 110.91,-0.09 166.37,0.01z"/>
      <path class="fil0" d="M1830.38 884l-19.81 0c-34.72,40 9.1,44.24 15.65,46.22 12.46,3.76 49.51,45.33 60.39,56.12 13.35,13.23 21.05,31.38 45.66,32.48 65.94,2.96 233.61,0.33 310.14,-0.4 34.72,-0.33 31.16,8.26 51.06,25.5l76.69 78.15c48.79,45.16 25.12,44.47 111.37,44.47 36.38,0 445.43,-5.27 459.78,3.81 17.43,11.04 64.73,71.45 79.35,76.08 16.7,5.3 451.21,0.29 541.4,1.08 26.18,0.23 32.96,16 46.5,29.6 51.33,51.65 28.3,40.35 115.1,40.35l116.19 0.11c2.17,0.05 20.5,0.18 21.19,0.02 11.66,-2.7 6.95,2.2 11.01,-8.58 -50.64,-0.07 -101.27,-0.02 -151.91,-0.02 -80.82,0 -53.04,13.74 -109.31,-41.31 -17.99,-17.59 -19.16,-28.45 -48.82,-28.35l-528.25 0.36c-19.62,-1.73 -32.18,-22.73 -43.49,-34.01 -13.25,-13.22 -23.69,-24.16 -36.69,-37.18 -9.54,-9.57 -9.98,-10.25 -28.4,-10.52l-415.49 0.18c-94.17,0 -80.56,10.65 -120.84,-30.14 -25.84,-26.17 -49.26,-50.02 -75.54,-75.74 -47.03,-46.04 -21.91,-42.16 -109.76,-42.16 -50.43,0 -100.86,0 -151.3,0 -25.8,0 -51.61,-0.02 -77.42,-0.01 -36.9,0.01 -46.91,5.64 -62.59,-10.65 -18.05,-18.75 -55.7,-60.13 -74.42,-73.17 6.48,-24.61 10.79,-24.73 -7.42,-42.29z"/>
      <path class="fil0" d="M2225.15 3171.2l19.23 0c0.61,-0.69 0.75,-1.62 1.97,-1.96 1.22,-0.33 1.53,-1.52 1.93,-1.99 6.5,-7.72 0.82,1.26 5.14,-6.36 4.27,-7.53 4.75,-7.86 3.16,-17.21 -4.34,-25.6 -17.32,-4.15 -45.47,-32.83 -5.34,-5.44 -12.79,-12.18 -19.42,-19.28 -61.76,-66.09 -50.96,-54.99 -104.27,-54.95l-235.75 0.01c-98.65,0 -50.8,7.72 -149.94,-84.93 -58.73,-54.88 -45.42,-63.49 -96.35,-63.04l-471.83 0.27c-26.91,-0.45 -57,-41.88 -86.08,-71.09 -10.32,-10.37 -10.23,-10.44 -29.52,-10.64 -12.79,-0.13 -26.05,0.27 -38.94,0.27l-471.59 0.04c-55.66,0.47 -39.25,-16.92 -93.92,-63.1 -15.9,-13.42 -156.74,-6.65 -191.05,-6.92l-31.07 0.91c-8.86,2.22 -2.49,-0.63 -8.06,3.51l148.23 4.09c88.3,0.01 61.27,-7.44 110.6,40.1 40.21,38.74 15.05,29.58 121.64,29.58 137.58,0 329.35,-5.33 454.22,-0.29 22.76,0.92 59.63,45.83 82.26,69.2 17.74,18.33 28.85,12.46 61.71,12.44l454.15 -0.26c30.19,-0.11 32.22,11.88 48.72,28.4l112.23 112.93c14.07,12.28 48.82,6.97 71.06,6.97l225.2 0c26.6,0 53.34,-5.2 67.92,8.91 20.07,19.4 56.52,62.09 76.3,74.88 -6.82,22.87 -7.7,27.48 7.58,42.34z"/>
      <path class="fil0" d="M2196.51 1483.23c-27.9,-43.69 -65.26,-11.12 -36.35,23.43 25.32,2.57 24.15,-4.37 36.35,-14.46 40.99,-0.45 82.14,-0.1 123.16,-0.09 74.23,0.04 70.24,7.91 98.46,-20.54 47.05,-47.41 32.8,-40.84 77.45,-40.71l359.05 -0.07c29.65,-0.29 28.61,-2.04 44.08,14.23l59.63 60c9.35,9.28 18.45,23.81 33.48,25.45l242.73 -0.09c133.93,0 103.38,-17.62 178.94,61.44 16.93,17.7 14.35,14.13 46.22,13.86l358.96 -0.04c48.76,0.02 47.75,6.11 53.38,-8.33l-359.52 0.04c-63.3,0 -75.49,8.02 -100.88,-17.77 -10.87,-11.03 -49.79,-54.73 -61.65,-57.18l-238.6 -0.39c-120.81,0 -110.79,15.25 -153.24,-27.27 -10.78,-10.8 -19.05,-19.04 -29.92,-29.94 -49,-49.17 -34.07,-42.26 -77.21,-42l-358.95 0.01c-27.32,-0.09 -34.49,-4.7 -49.2,10.12 -30.95,31.19 -40.43,50.99 -70.22,51.01l-176.14 -0.72z"/>
      <path class="fil0" d="M2310.15 1548.32c4.71,11.29 -2.02,21.04 -9.74,23.9 -5.12,1.89 -9.14,2.24 -14.34,0.21 -11.49,-4.47 -4.86,-1.71 -9.04,-10.15 -10.72,-21.65 23.94,-35.93 33.11,-13.97zm13.03 3.18c-10.29,-10.81 -13.47,-27.78 -37.18,-22.26 -44.78,10.43 -4.4,80.42 27.64,41.93 11.55,-13.86 -2.88,-11.54 48.25,-11.14 31.56,0.25 34.37,5 51.23,-12.6 35.64,-37.21 42.32,-52.42 75.3,-52.16l373.33 0.19c17.05,2.06 24.67,15.88 34.63,25.78 93.99,93.55 30.66,65.96 306.5,66.1 36.87,0.02 88.4,-3.07 123.42,-0.1 18.88,1.61 26.18,15.6 37.05,26.51 50.66,50.88 34.66,43.74 78.79,43.48 72.65,-0.43 413.16,4.75 429.42,-2.63 -5.37,-9.11 -5.47,-5.99 -20.85,-6.04l-419.26 0.51c-28.6,0.13 -25.7,-3.02 -39.93,-17.72 -13.27,-13.7 -43.83,-50.24 -61.69,-52.17l-278.25 0.06c-47.09,0 -80.38,7.15 -99.03,-12.02 -13.39,-13.74 -70.19,-78.34 -87.62,-80.27l-387.16 -0.17c-23.4,0.16 -24.28,6.71 -36.17,18.88 -54.74,55.97 -34,46.51 -118.41,45.82z"/>
      <path class="fil0" d="M1858.69 2572.05c8.07,12.26 17.38,29.46 37.22,17.26 18.13,-11.16 10.45,-27.97 -0.89,-40.88 -23.97,-2.36 -23.24,4.75 -36.33,14.52l-179.67 -0.02c-28.82,-0.17 -25.16,4.01 -40.16,18.97 -10.88,10.85 -19.06,18.96 -29.78,30.06 -16.02,16.61 -15.89,12.67 -45.91,12.44l-359.03 0c-43.18,0.26 -29.01,3.83 -75.69,-42.48 -12.04,-11.95 -48.19,-54.2 -62.05,-56.92 -22.86,-4.5 -334.55,3.93 -358.16,-0.86 -14.9,-3.03 -50.97,-45 -62.9,-57.3 -25.21,-25.94 -31.07,-17.58 -102.66,-17.58l-239.28 0.02c-15.93,-0.01 -108.16,-4.14 -120.11,4.09l415.84 4.21c31.62,-0.29 37.32,9.33 72.35,46.49 39.54,41.95 17.81,28.89 149.17,28.89l239.56 0.02c20.64,2.43 77.65,67.71 94.88,85.67 16.87,17.58 13.83,14.03 45.56,13.75l358.96 -0.03c50.22,0.13 36.41,6.21 80.65,-38.56 11.68,-11.83 14.57,-22.02 38.72,-22.61l179.72 0.86z"/>
      <path class="fil0" d="M1775.25 2484.47c15.35,12.26 -3.08,48.27 -25.67,28.73 -19.04,-16.46 8.57,-42.37 25.67,-28.73zm-43.22 19.27c9.7,10.03 11.15,21.72 28.52,22.84 36.63,2.37 37.69,-51.79 3.09,-53.21 -20.63,-0.84 -20.78,11.95 -31.61,21.77 -17.66,-0.06 -35.28,-0.03 -52.93,-0.18 -28.93,-0.25 -25.85,1.12 -40.46,16.38 -25.16,26.3 -40.18,47.99 -64.68,48.48l-331.04 -0.25c-75.09,0 -48.24,10.82 -140.17,-82.18 -15.82,-16 -63.04,-9.55 -102.62,-9.55l-274.51 -0.28c-15.33,-2.5 -24.21,-16.41 -31.99,-24.49 -36.12,-37.57 -37.45,-45.73 -66.27,-45.57 -54.68,0.3 -426.73,-5.59 -443.73,3.08 6.59,10.48 11.87,5.55 45.89,5.5l390.68 -0.13c36.55,-0.33 26.07,0.38 68.46,42.11 35.83,35.28 19.68,27.86 86.28,27.85 75.06,0 150.13,0.01 225.2,0.01 29.04,0 79.38,-8.58 98.99,8.52 18.88,16.44 34.97,36.54 56.22,56.48 36.31,34.06 17.71,26.96 84.07,26.96l334.51 0.16c27.15,0.24 23.75,-2.49 37.89,-16.71 55.88,-56.18 33.98,-49.14 120.23,-47.6z"/>
      <path class="fil0" d="M1456.73 3029.85c-13.34,-15.44 -11.96,-18.94 -0.15,-34.44 16.94,-1.47 28.16,0.81 28.04,17.41 -0.13,16.13 -11.04,18.97 -27.89,17.04zm-20.28 -11.26c4.83,4.98 -0.24,-0.22 5.26,6.35 3.37,4.04 2.85,4.31 6.81,7.79 5.1,4.48 10.77,7.32 19.16,6.83 32.97,-1.95 33.14,-51.35 0,-53.59 -19.41,-1.31 -23.13,12.74 -31.23,23.78 -30.39,1.03 -61.02,0.32 -91.49,0.32 -55.84,0.01 -47.49,6.19 -72.75,-19.39 -59.03,-59.79 -31.49,-36.44 -145.7,-39.78 -22.84,-0.67 -29.25,-13.99 -53.77,-38.83 -11.69,-11.84 -34.42,-37.48 -45.53,-46.04 -23.67,-18.22 -516.5,5.44 -548.45,-7.69 -6.76,-2.77 -38.25,-36.44 -46.48,-44.75 -25.63,-25.88 -16.96,-30.12 -65.53,-29.73 -30.47,0.24 -61.02,0.06 -91.51,0.04 -15.25,-0.02 -30.49,-0.01 -45.75,-0.02 -12.73,0 -28.81,-1.81 -40.92,1.57 -0.81,0.22 -2.01,0.83 -2.64,1.05 -0.63,0.2 -1.77,0.65 -2.56,1.15 12.24,9.54 164.8,4.59 179.85,4.53 48,-0.2 39.12,1.79 63.88,26.58 6.21,6.22 43.13,46.13 47.1,47.69 30.94,12.13 526.99,-9.41 549.49,6.69l68.4 68.89c29.01,31.69 42.68,11.98 122.96,16.69 21.06,1.24 31.76,20.03 54.12,41.98 25.98,25.5 25.93,17.76 72.26,17.75 31.51,-0.01 63.57,-0.59 95.01,0.15z"/>
      <path class="fil0" d="M2598.45 1059.67c-16.7,1.58 -27.74,-1.15 -27.75,-17.31 -0.01,-16.09 10.95,-18.82 27.59,-17.34 11.95,14.14 12.26,20.22 0.16,34.64zm384.09 72.85c-8.54,-8.41 -14.36,-14.39 -22.71,-23.04 -10.25,-10.61 -10.57,-13.4 -31.12,-13.47 -111.48,-0.38 -86.94,16.01 -144.08,-43.59 -22.61,-23.58 -33.66,-15.84 -74.38,-15.84 -30.49,0 -61,0.3 -91.49,-0.12 -8.03,-8.34 -14.47,-23.75 -33.83,-20.53 -12.59,2.09 -24.02,13.18 -22.28,29.46 1.43,13.28 13.26,24.23 27.65,23.79 17.9,-0.54 20.19,-13.11 28.46,-23.82 30.94,-1.46 63.83,-0.43 95.01,-0.44 51.17,-0.01 43.56,-6.66 71.07,21.29 22.07,22.42 30.97,37.93 51.87,38.61 79.53,2.58 95.11,-13.52 124.72,17.14l68.5 68.7c21.6,15.93 506.96,-6.39 545.24,6.23 9.96,3.28 39.67,36.62 49.49,46.5 24.58,24.74 16.3,27.92 63.8,27.63 61.01,-0.36 122.17,-0.07 183.19,0 -3.82,-11.05 5.6,-7.58 -17.33,-8.71l-162.36 0.53c-43.88,0.25 -38.68,-0.54 -65.32,-28.47 -8.31,-8.71 -41.3,-42.84 -46.16,-44.97 -14.27,-6.24 -326.48,-2.32 -370.56,-2.32 -195.9,0 -152.6,19.07 -227.37,-54.57z"/>
      <path class="fil0" d="M2197.52 2716.5c-2.77,-10.8 -1.55,-17.12 1.13,-25.43 9.28,-3.26 13.71,-4.12 25.76,-1.34 17.75,24.86 -2.91,44.97 -26.89,26.77zm-240.29 70.3l154.82 0.03c39.56,0 40.5,-9.58 84.46,-56.09 16.48,0.91 30.92,3.07 38.96,-9.85 9.04,-14.54 3.69,-30.76 -5.51,-37.18 -23.12,-16.15 -55.06,6.71 -38.21,39.35 -16.56,14.06 -30.27,29.78 -45.93,45.63 -15.75,15.93 -42.51,9.73 -83.03,9.73l-109.08 0.01c-14.58,0 -38.65,-25.43 -41.81,-33.99 -4.49,-12.21 -4.03,-63.79 1.66,-73.98 0.21,-0.37 36.21,-36.92 36.75,-37.25 13.98,-8.54 123.29,-3.74 147.81,-3.53 34.85,0.29 32.02,-7.98 50.94,-26.67 55.53,-54.87 61.01,-48.33 60.62,-93.29 -0.43,-50.4 -0.04,-100.95 -0.05,-151.36 0,-59.82 -9.89,-47.51 48.78,-103.73 12.01,-11.52 5.18,-4.04 22.57,-4.53 12.78,-0.36 20.56,-5.23 22.01,-18.67 3.36,-31.07 -42.57,-38.13 -44.49,-0.66 -0.68,13.14 7.93,3.54 -22.28,33.6 -37.02,36.85 -34.94,27.31 -34.93,62.31l0.02 190.02c0,28.89 -7.85,29.44 -41.2,62.12 -55.16,54.06 -18.46,42.56 -164.19,42.34 -59.69,-0.09 -45.07,-0.86 -76.63,30.04 -11.35,11.11 -17.46,12.12 -17.74,34.12 -0.2,15.39 -1,38.49 0.01,53.19 1.2,17.63 10,20.57 20.66,31.39 11.64,11.81 12,16.89 34.99,16.89z"/>
      <path class="fil0" d="M1856.37 1363.83c-25.84,9.68 -36.41,-1.56 -30.3,-27.18 13.07,-6.49 18.88,-7.46 31.52,1.77 2.83,11.02 1.78,17.22 -1.22,25.41zm-2.46 368.19l0 -182.98c0,-41.54 -5.13,-25.72 39.43,-70.86 9.61,-9.74 16.88,-16.54 26.45,-26.37 13.06,-13.42 11.85,-17.79 37.43,-17.79l126.67 0c31.99,0 29.4,-7.73 46.67,-24.82 19.13,-18.95 23.37,-13.46 22.95,-50.06 -0.32,-27.84 5.31,-48.66 -9.42,-63.72 -14.27,-14.57 -20.14,-27.16 -45.86,-27.31 -49.29,-0.27 -98.74,0.51 -148.08,0.24 -44.47,-0.25 -35.12,-3.4 -91.47,56.07 -64.58,-4.03 -41.31,41.48 -33.37,47.04 23.04,16.14 54.71,-6.24 38.35,-39.48 79.55,-71.64 9.48,-53.45 216.74,-55.31 38.31,-0.34 29.28,-0.75 49.47,18.71 20.67,19.92 15.06,16.82 15.19,53.12 0.13,36.66 2.47,31.3 -17.53,50.71 -32.42,31.46 -16.05,26.48 -92.91,26.48l-77.41 -0.02c-27.08,-0.01 -24.7,-0.63 -38.88,14.14 -9.33,9.73 -16.63,16.91 -26.25,26.51 -9.62,9.59 -16.71,16.97 -26.36,26.44 -11.1,10.88 -20.03,13.96 -20.46,34.94 -1.31,62.74 6.93,157.14 0.34,215.1 -1.89,16.63 -13.13,21.45 -22.72,30.82 -7.77,7.6 -18.85,21.49 -26.03,27.13 -17.64,13.84 -19.77,-5.58 -36.85,8.3 -12.54,10.2 -10.97,32.92 4.91,38.7 17.57,6.41 30.03,-4.89 31.79,-18.16 3.68,-27.77 -5.46,-11.48 41.76,-58.04 15.16,-14.96 15.46,-11.21 15.46,-39.52z"/>
      <path class="fil0" d="M3160.64 2326.45c-23.25,0 -41.59,-28.22 -68.46,-54.5 -42.93,-42 -47.46,-37.95 -47.1,-71.79 0.85,-79.49 -1.73,-160.19 0.38,-239.42 9.88,-8.04 19.75,-10.55 17.68,-27.79 -3.37,-27.95 -44.82,-25.77 -44.41,3.12 0.21,14.28 9.4,17.8 17.96,24.66l0.14 242.8c0,34.23 2.91,29.07 20.7,46.77 11.43,11.37 20.33,20.32 31.57,31.77 41.09,41.89 42.47,53.29 78.48,52.9 86.67,-0.94 173.76,-0.15 260.49,-0.15 145.67,0 97.08,-13.09 158.69,37.23 55.57,45.41 11.48,33.31 161.52,33.31 15.9,0 111.54,4.51 125.05,-4.77 -16.52,-7.9 -209.08,-3.44 -230.61,-3.44 -25.26,0 -41.75,-25.81 -58.98,-39.69 -30.46,-24.51 -16.09,-31.02 -67.69,-31.02l-355.4 0.01z"/>
      <path class="fil0" d="M1009.68 2094.45c-8.5,6.43 -17.53,10.34 -17.7,24.68 -0.36,29.86 44.96,29.91 44.52,-0.01 -0.22,-14.46 -9.11,-17.94 -17.82,-24.67l-0.22 -239.33c0.39,-40.76 -5.05,-34.48 -26.11,-55.58 -101.61,-101.75 -45,-79.17 -242.07,-79.17 -52.79,0 -105.56,0.01 -158.35,0.02 -15.26,0 -68.69,1.98 -79.43,-1 -13.49,-3.75 -31.32,-25.67 -43.95,-36.41 -52.6,-44.72 -18.93,-33.12 -126.45,-33.12 -15.48,0 -146.11,-4.78 -160.24,4.74 14.41,6.96 141.3,3.49 156.72,3.49 23.69,0 54.91,-1.81 77.63,-0.18 27.96,1.99 69.01,61.49 89.45,68.94 20.29,7.41 353.38,-4.06 395.87,1.99 15.44,2.2 32.01,24.89 42.18,34.95 82.04,81.19 66.29,44.32 66.29,172.31 0,52.02 1.6,106.65 -0.33,158.34z"/>
      <path class="fil0" d="M2544.85 1359.85c-13.47,-5.59 -4.57,-4.1 -13.91,-11.74 -17.15,-14.02 -37.29,-1.36 -36.77,17.93 0.57,21.18 24.61,29.14 39.78,13.89 10.16,-10.2 -3.19,-3.68 10.9,-11.72l348 0.85c25.79,6.58 94.03,105.02 120.43,108.03 40.16,4.58 318.58,-3.62 340.9,-0.05 15.31,2.44 11.12,19.08 31.15,17.7 29.31,-2.02 28.19,-46.63 -2.89,-45.08 -21.3,1.06 -12.97,16.42 -28.26,19.03 -77.42,0.01 -154.83,-0.01 -232.24,-0.01 -139.03,0 -95.19,15.56 -170.52,-58.74 -24.58,-24.24 -41.64,-49.65 -64.97,-50.32 -97.04,-2.8 -240.82,0.24 -341.6,0.24z"/>
      <path class="fil0" d="M697.5 2586.3l344.45 0.76c23.54,6.03 94.08,105.23 120.23,108.28 40.01,4.65 330.13,-3.59 348.17,0.03 9.92,2 19.21,27.91 41.01,13.88 26.65,-17.18 -4.43,-69 -37.5,-22.75l-341.61 0.74c-22.1,-1.13 -30.97,-17.47 -42.5,-29.18 -84.5,-85.82 -64.18,-80.19 -126.11,-80.12l-274.49 0.06c-57.58,0.58 -25.95,-12.98 -54.02,-17.42 -37.98,-6.01 -33.31,54.81 3.74,43.84 11,-3.26 11.53,-10.88 18.63,-18.12z"/>
      <path class="fil0" d="M3612.96 1874.71c21.58,-20.64 40.05,-40.68 61.27,-61.82 47.83,-47.67 37.89,-49.57 77.5,-49.09l95.18 0.32c3.5,0.01 10.8,0.04 14.04,-0.39l12.54 -3.56c-14.5,-9.21 -108.42,-4.51 -125.25,-4.69 -33.46,-0.36 -30.03,-0.57 -47.2,17.29 -11.22,11.67 -20.29,20.26 -31.63,31.72 -76.52,77.3 -53.73,70.82 -118.17,70.8 -58.91,-0.02 -286.92,-4.84 -309.25,0.77 -12.36,3.09 -54.48,49.9 -65.89,61.37 -33.04,33.24 -17.72,14.56 -41.76,21.94 -14.72,4.52 -19.72,24.73 -9.01,36.57 11.67,12.89 36.34,8.42 38.94,-11.03 3.85,-28.66 -14.34,-13.33 15.23,-40.56 85.63,-78.9 22.99,-60.64 192.28,-60.64l186.5 0c25.09,0.04 40.46,4.61 54.69,-9.01z"/>
      <path class="fil0" d="M1000.12 1529.24l154.83 0.02c15.78,0.01 8.36,14.67 28.44,16.28 45.83,3.69 19.6,-83.47 -23.29,-26.39 -3.91,5.2 -146.58,-3.89 -177.12,2.46 -13.18,2.74 -36.22,31.27 -46.42,41.31 -24.09,23.72 -15.02,28.63 -59.55,28.22l-264.17 0.18c-36.93,0.12 -32.96,-18.76 -56.88,-34.3 1.96,-11.27 7.73,-23.65 -1.53,-33.8 -8.72,-9.56 -25.55,-9.83 -34.38,-0.25 -7.7,8.34 -6.96,26.4 1.56,33.1 17.09,13.45 18.59,-3.98 35.8,10 48.06,39.01 -3.73,33.35 150.65,33.35 59.87,0 119.76,-0.2 179.62,0.2 25.43,0.18 32.15,-6.3 57.85,-34.72 31.39,-34.69 31.59,-35.65 54.59,-35.65z"/>
      <path class="fil0" d="M2934.43 2310.36c-16.9,-24.98 21.41,-37.46 30.77,-16.71 8.15,18.06 -15.15,39.82 -30.77,16.71zm-242.74 -323.14c28.97,-12.4 43.61,10.55 29.62,26.82 -9.83,11.45 -38.39,7.06 -29.62,-26.82zm-30.71 379.12c-14.38,0 -30.22,-21.33 -38.26,-29.5 -13.45,-13.66 -22.68,-13.91 -22.67,-41.81l0.01 -109.08c0.01,-81.29 -8.19,-63.81 25.73,-98.53 7.79,-7.97 57.93,-59.29 62.07,-60.93 14.61,-5.76 32.06,8.62 43.24,-13.38 20.13,-39.63 -48.54,-57.18 -49.85,-13.67 -0.84,27.87 9.2,13.48 -14.88,37.06 -77.84,76.22 -74.88,62.35 -74.66,110.72 0.09,19.93 0.01,39.9 0.01,59.83 0,124.48 -14.58,97.21 35.04,146.8 14.52,14.51 12.29,20.85 37.73,20.86l186.49 0.02c31.62,0 29.81,1.15 47.75,-17.91 9.12,-9.69 22.62,-24.83 33.18,-32.56 22.48,8.36 50.74,-1.59 41.72,-31.59 -5.64,-18.78 -34.49,-24.36 -47,-6.41 -19.02,27.3 17.7,12.64 -21.91,51.94 -30.89,30.65 -20.06,28.04 -50.22,28.11l-193.53 0.02z"/>
      <path class="fil0" d="M1363.43 2067.4c-19.3,9.89 -35.9,5.47 -32.82,-23.49 25.49,-15.47 41.01,-5.38 32.82,23.49zm-242.34 -299.13c-27.85,8.62 -42.35,-12.05 -28.03,-27.48 7.17,-7.73 17.42,-8.25 25.61,-0.62 9.43,8.78 6.34,16.98 2.42,28.1zm262.57 -87.79l-182.98 0c-46.96,0 -39.33,20.7 -70.48,44.58 -17.16,13.15 -20.05,-9.04 -41.07,7.91 -12.87,10.37 -10.18,33.97 1.62,42.29 12.57,8.86 30.45,4.16 37.73,-6.32 24.36,-35.06 -30.91,0.82 39.11,-70 14.74,-14.9 24.4,-10.19 50.69,-10.08l172.72 -0.21c19.54,1.21 25.05,13.14 36.33,24.27 36.1,35.66 27.76,23.13 27.76,89.48 0,39.91 0.43,79.99 0.25,119.86 -0.12,26.43 -5.27,25.17 -18.94,38.38l-57.86 58.32c-25.57,26.28 -13.5,0.14 -41.61,11.18 -34.65,13.6 -6.51,71.11 27.8,45.56 17.11,-12.75 2.94,-28.2 8.8,-41.27l86.9 -88.1c7.08,-12.27 3,-136.09 3.05,-168.57 0.08,-54.73 5.3,-35.11 -38.27,-80.24 -16.14,-16.72 -10.86,-17.05 -41.55,-17.05z"/>
      <path class="fil0" d="M3136 2463.86c-17.43,16.13 -38.86,43.71 -55.91,56.67 -13.91,10.56 -80.98,5.48 -102.42,5.48 -115.25,0 -67.65,0.16 -97.44,-14.17 -38.02,-18.3 -45.58,50.79 -4.6,42.35 24.16,-4.98 -0.01,-19.52 34.8,-20.46 18.15,-0.49 38.24,0.35 56.69,0.35 125.23,0 95.07,17.37 167.2,-57.83 15.11,-15.76 15.59,-12.44 43.89,-12.21 81.83,0.69 204.8,-5.59 274.71,-0.09 18.09,1.42 23.22,12.35 33.63,22.52 25.06,24.52 2.56,14.39 10.5,38.63 12.81,39.15 70.94,-9.95 32.25,-28.66 -20.55,-9.94 -15.33,9.55 -36.34,-12.77 -7.08,-7.52 -20.32,-23.98 -30.2,-26.83l-224.69 -1.07c-28.44,0 -83.91,-8.72 -102.05,8.1z"/>
      <path class="fil0" d="M886.08 1870.32c-53.01,-72.77 -68.57,-53.98 -163.95,-53.98l-218.05 -0.18c-15.5,-2.44 -45.53,-37.95 -57.73,-51.14l-56.66 -51.73 -160.19 -0.98c-12.95,-0.02 -42.89,-5.3 -48.08,5.63 11.2,6.06 153.32,2.68 185.49,2.52 31.23,-0.15 28.81,6.62 44.92,22.74 21.83,21.85 41.89,40.99 63.34,63.35 16.95,17.67 12.71,18.55 46.33,18.19l193.59 -0.09c28.34,0 107.27,-6.85 122.78,6.24 9.73,8.21 41.83,37.14 44.66,49.85 2.57,11.52 -2.74,15.91 7.05,25.26 31.55,30.18 71.97,-51.36 -3.5,-35.69z"/>
      <path class="fil0" d="M3237 2081.96c19.9,-0.27 15.23,1.48 29.24,16.02 83.72,86.82 64.29,72.68 133.68,72.68 69.2,0 138.4,0 207.61,0 166.3,0 91.28,-7.89 161.95,46.74 -6.35,58.45 44.1,41.78 43.04,14.38 -0.75,-19.58 -12.95,-20.37 -30.79,-20.01 -15.65,0.32 -12.8,-5.2 -26.49,-18.69 -31,-30.54 -19.07,-30.94 -73.8,-30.85l-309.69 0.08c-38.9,0.45 -26.14,4.63 -68.63,-37.93 -7.9,-7.92 -46.86,-43.36 -48.25,-51.47 -1.97,-11.51 7.45,-28.84 -14.29,-34.37 -33.03,-8.4 -45.75,44 -3.57,43.43z"/>
      <path class="fil0" d="M356.18 1892.74l344.84 0c22.5,0 47.55,34.2 72.35,58.99 10.32,10.3 26.98,19.75 26.93,35.47 -0.23,65.05 72.83,10.25 33.73,-11.73 -24.91,-13.99 -13,15.27 -43.34,-16.4 -88.55,-92.42 -52.38,-74.49 -188.2,-74.63 -44.57,-0.04 -89.14,-0.03 -133.71,-0.01 -145.55,0.05 -117.97,15.22 -166.63,-31.61 -29.44,-28.32 -6.25,-21.16 -17.39,-42.3 -9.31,-17.67 -35.46,-12.78 -40.8,3.7 -9.96,30.69 17.71,28.09 31.93,29.24 8.6,0.69 27.16,22.22 34.64,29.26 21.4,20.13 13.45,19.98 45.63,20z"/>
      <path class="fil0" d="M894.59 2091.83c-95.55,95.53 -62.73,79.62 -147.82,79.65l-285.21 -0.07c-20.86,1.97 -75.36,65.76 -91.08,81.57 -50.24,50.52 -27.69,39.21 -158.62,38.18 -3.32,-0.03 -11.28,-0.22 -14.17,0.03 -8.38,0.74 1.71,-0.76 -6.71,0.88 -9.25,1.8 -4.75,0.68 -9.22,2.96l132.35 4.82c31.16,0.18 29.79,-7.15 45.27,-22.81l68.49 -68.59c11.57,-11.53 19.88,-27.71 40.71,-28.77 42.86,-2.18 93.64,0.27 137.42,0.26l200.83 0.09c26.35,-2.54 74.36,-73.85 92.82,-80.87 11.84,-4.5 17.43,1.61 28.11,-6.8 12.67,-9.97 10.28,-35.92 -9.46,-39.6 -27.71,-5.17 -30.05,19.01 -23.72,39.08z"/>
      <path class="fil0" d="M3219.18 2238.85l340.45 -0.13 79.66 80.92c8.77,9.09 16.67,20.61 28.83,22.69l189.68 0.63c16.16,-0.5 11.74,3.01 15.94,-5.72 -13.23,-7.92 -102.22,-2.92 -125.46,-2.92 -81.21,0 -74.39,8.37 -104.92,-22.35 -22.51,-22.65 -42.78,-42.24 -65,-65.15 -18.39,-18.95 -13.63,-16.66 -48.21,-16.31l-193.56 0.05c-28.2,0 -103.51,6.71 -119.24,-6.29 -13.29,-10.98 -42.37,-35.63 -45.1,-52.83 -13.23,-83.59 -94.17,36.93 -2.98,12.82 8.68,14.02 35.46,37.94 49.91,54.59z"/>
      <path class="fil0" d="M3480.85 2018.12c207.36,0 163.99,18.53 234.08,-52.04 87.97,-88.58 44.37,-46.15 80.47,-56.8 11.08,-3.26 18.69,-15.98 12.2,-31.79 -6.07,-14.78 -49,-27.38 -40.29,28.35 -18.74,11.31 -76.03,74.27 -95.89,94.23 -12.79,12.85 -15.32,9.9 -39.17,9.7l-236.03 0.05c-14.5,-1.26 -44,-30.87 -52.38,-42.61 -10.74,-15.07 0.63,-24.44 -14.2,-34.84 -11.94,-8.38 -28.04,-4.05 -33.29,6.1 -7.04,13.58 -0.73,27.53 9.08,32.4 18.98,9.4 17.25,-6.23 30.18,1.58 14.29,8.61 33.73,41.51 50.44,45.11 14.55,3.13 75.55,0.56 94.81,0.56z"/>
      <path class="fil0" d="M287.95 2149.41l88.83 -87.13c15.75,-15.99 12.16,-17.22 42.6,-16.88 78.49,0.87 157.37,0.1 235.9,0.1 20.11,0.12 32.11,16.54 54.62,40.25 15.59,16.45 -4.3,51.91 45.04,37.56 6.22,-11.46 10.31,-28.71 -3.1,-37.79 -31.98,-21.63 -2.1,30.64 -62.15,-32.54 -14.8,-15.57 -12.4,-15.91 -41.44,-15.91l-239.28 0.01c-25.19,0 -30.51,13.88 -58.07,41.51 -17.85,17.9 -33.55,32.85 -51.07,51.02 -14.38,14.9 -8.44,15.49 -28.82,15.28 -16.15,-0.17 -26.08,5.47 -25.27,23.43 1.18,26.37 51.27,39.26 42.23,-18.92z"/>
      <path class="fil0" d="M803.07 2215.1l221.71 -0.17c6.76,11.91 12,28.8 35.31,17.5 28.5,-14.82 1.94,-58.28 -25.21,-36.47 -13.31,10.69 0.67,10.74 -24.2,10.74l-211.12 0.05c-28.93,0.02 -26.53,-0.54 -41.53,15.09 -30.82,32.13 -40.32,49.25 -67.3,49.53 -19.83,0.21 -40.15,-0.25 -60.07,-0.25 -12.85,-8.1 -8.63,-24.06 -28.29,-24.47 -35.71,-0.75 -27.25,56.86 8.67,43.38 18.47,-6.93 -0.78,-11.08 44.22,-10.58 62.78,0.7 51.36,10.01 107.86,-49.03 14.9,-15.56 10.97,-15.31 39.97,-15.31z"/>
      <path class="fil0" d="M3447.43 1807.78c40.8,10.44 36.04,-64.91 -8.07,-39.91 -13.9,7.88 5.44,3.5 -14.86,7.3l-60 0.19c-52.12,-0.32 -60.76,60.46 -94.9,64.64l-239.16 -0.56c-7.79,-11.97 -6.24,-19.73 -24.64,-19.8 -13.98,-0.06 -22,7.54 -22.26,21.47 -0.28,14.4 8.84,23.88 22.25,23.76 14.04,-0.12 16.91,-8.48 24.65,-16.44 77.19,-1.59 155.22,0.37 232.49,-0.02 26.24,-0.14 26.15,-7.12 39.38,-20.51 10.17,-10.3 18.18,-17.91 28.01,-28.27 14.67,-15.47 12.27,-16.16 41.34,-15.88 18.78,0.17 37.71,-0.42 56.41,0.77 4.87,10.14 6.14,19.87 19.35,23.25z"/>
      <path class="fil0" d="M1295.69 1773.28c15.31,6.31 1.29,0.11 11.81,10.39 18.95,18.5 38.78,3.17 39.68,-13.36 1.16,-21.21 -20.97,-30.4 -36.04,-19.59 -5.66,4.06 -6.58,8.08 -11.93,13.93 -120.55,2.68 -83.29,-12.25 -149.89,53.21 -28.55,28.05 -29.9,23 -31.18,44.03l-0.12 134.05c0,0 -38.9,14.84 -17.82,40.5 11.3,13.76 38.54,9.11 40.28,-12.76 2.38,-29.93 -14.52,2.07 -13.88,-55.85 0.28,-24.57 0.15,-49.36 0.05,-73.94 -0.15,-36.86 -5.65,-35.83 14.98,-55.5 81.91,-78.14 36.89,-64.99 154.06,-65.11z"/>
      <path class="fil0" d="M1350.89 1423.77c-7.63,-34.02 19.59,-38.35 29.68,-26.47 14.48,17.05 -1.19,39.27 -29.68,26.47zm-12.97 -10.69c7.81,12.24 9.01,23.57 28.18,23.95 36.01,0.7 35.9,-50.68 3.13,-53.2 -19.41,-1.49 -21.75,9.35 -31.31,20.34 -76.09,0.66 -153.08,-1.46 -228.99,-0.18 -25.95,0.43 -38.47,20.31 -65.08,48.01 -24.89,25.91 -34.75,15.46 -101.25,16.94 -3.65,-26.14 -29.44,-33.91 -41.62,-15.24 -13.5,20.68 5.01,46.69 33.72,29.8 19.52,-11.48 49.23,-6.46 72.7,-6.27 49.2,0.4 59.84,-59.05 91.72,-64.3l238.81 0.14z"/>
      <path class="fil0" d="M2958.25 2043.04c13.97,-34.75 -45.23,-46.09 -43.6,-8.55 0.83,18.89 9.15,10.62 13.17,25.35l0.78 105c0.23,41.52 3.77,33.12 -18.8,55.22 -72.19,70.71 -39.14,64.04 -153.81,61.68 -8.21,-8.81 -10.15,-19.63 -27.72,-18.27 -13.19,1.03 -21,10.16 -20.24,24.06 0.71,13.05 8.9,21.55 23.17,21.09 14.76,-0.47 17,-9.51 24.79,-18.04 120.24,-3.39 84.85,12.26 151.71,-54.98 30.3,-30.47 29.21,-16.99 29.11,-74.31 -0.05,-33.4 -1.1,-68.9 0.34,-102.04 9.57,-6.44 16.79,-5.52 21.09,-16.24z"/>
      <path class="fil0" d="M2704.09 2631.55c7.83,29.63 -7.66,38.66 -32.93,23.59 -2.33,-29.46 12.7,-33.28 32.93,-23.59zm407.29 -44.01c17.91,42.97 41.74,16.77 44.23,11.57 11.72,-24.52 -11.43,-42.18 -35.36,-27.75 -19.81,11.95 -39.98,6.5 -76.03,6.55 -43.42,0.06 -56.31,60.9 -91.25,64.58l-232.18 0.05c-13.09,-6.5 -7.15,-23.93 -31.7,-24.48 -36.57,-0.82 -35.3,50.6 -3.09,53.22 18.53,1.51 22.1,-9.89 31.27,-20.14 76.21,-1.21 152.91,1.16 228.99,0.09 25.97,-0.36 41.59,-23.23 66.86,-49.78 15.18,-15.95 12.14,-15.35 41.86,-15.04 18.74,0.19 37.88,-0.89 56.4,1.14z"/>
      <path class="fil0" d="M3709.57 1528.81c-10.29,-1.75 -16.4,-1.68 -23.36,3.87 -19.28,15.39 10.13,12.52 -64.63,13.23 -42.07,0.4 -28.62,4.46 -69.36,-36.53 -26.32,-26.48 -19.64,-15.19 -19.8,-28.54 -0.57,-47.51 -53.31,-29.15 -42.96,2.99 4.97,15.45 19.44,13.66 37.15,12.31 7.56,9.68 41.55,45.12 50.39,51.82 17.57,13.31 67.35,6.03 93.89,5.98 12.11,3.49 16.89,29.48 41.53,15.69 21.53,-12.04 8.23,-32.78 -2.83,-40.8z"/>
      <path class="fil0" d="M380.81 2509.41c95.09,-0.3 72.2,-16.12 134.93,48.56 16.89,17.41 0.46,7.83 7.74,30.62 8.55,26.78 56.11,11.88 41.45,-19.95 -6.01,-13.06 -20.21,-10.87 -36.33,-9.72 -68.13,-81.18 -57.59,-53.07 -137.5,-57.32 -26.56,-1.41 -7.77,-8.55 -27.3,-17.19 -14.56,-6.44 -27.62,2.54 -30.68,12.86 -4.52,15.21 4.64,27.91 16.64,30.05 19.57,3.49 21.15,-9.51 31.06,-17.92z"/>
      <path class="fil0" d="M1176.48 2062.19c8.25,-7.27 12.56,-13.68 24.71,-7.19 38.07,20.3 -30.08,63.38 -24.71,7.19zm98.13 -196.46c9.9,-7.33 17.77,-8.68 17.66,-24.56 -0.21,-29.5 -41.88,-29.3 -45.02,-2.85 -1.94,16.42 7.73,20.26 17.61,27.41l0.66 116.12c-0.01,17.24 -33.6,48.3 -47.49,59.83 -13.35,11.1 -6.73,2.96 -24.36,3.2 -21.95,0.3 -34.91,22.98 -21.36,42.69 12.49,18.15 38.17,9.83 45.35,-4.45 13.44,-26.73 -16.69,-16.09 16.08,-47.11 8.27,-7.83 30.4,-28.37 35.35,-34.93 13.59,-18.04 3.33,-105.44 5.54,-135.35z"/>
      <path class="fil0" d="M408.96 1978.04c11.44,13.8 10.21,20.41 35.67,17.16 23.8,-11.87 10.36,-75.19 -35.67,-25.99 -103.83,2.95 -76.5,-14.9 -133.58,44.5 -28.88,30.05 -26.57,0.54 -46.06,17.05 -32.35,27.37 32.15,64.36 37.14,20.63 2.91,-25.41 -14.83,-3.83 24.3,-43.48 35.95,-36.44 26.31,-32.93 118.19,-29.86z"/>
      <path class="fil0" d="M3832.39 2018.07c3.82,-37.16 -26.45,-42.81 -38.98,-26.02 -11.22,15.05 0.54,17.72 -6.48,32.17 -0.36,0.74 -43.69,51.49 -63.03,53.32 -19.87,1.89 -56.59,0.25 -77.66,-0.36 -7.85,-9.33 -10.11,-19.89 -27.89,-18.17 -28.59,2.77 -25.69,45.57 3.1,45 14.13,-0.28 17.17,-9.91 24.79,-18.06 22.34,-0.33 44.73,-0.21 67.08,-0.01 45.17,0.42 48.13,-38.07 77.29,-55.05 18.98,-11.05 12.92,10.79 41.78,-12.83z"/>
      <path class="fil0" d="M2114.71 2110.76c20.07,-9.94 35.67,-5.57 32.78,23.65 -25.12,15.61 -40.34,5.66 -32.78,-23.65zm-189.15 93.62l119.64 -0.45c16.28,0.02 56.84,-44.14 65.86,-57.38 22.72,4.46 52.58,3.07 45.26,-29.51 -5.66,-25.25 -42.98,-26.66 -50.63,-3.75 -11.76,35.24 23.25,6.53 -23.4,53.51 -36.66,36.92 -24.49,29.1 -125.06,28.8l-31.67 -0.19c-7.9,-9.24 -9.42,-17.82 -24.63,-17.99 -13.32,-0.14 -22.41,9.39 -22.27,22.57 0.15,14.22 19.31,40.53 46.91,4.38z"/>
      <path class="fil0" d="M2844.11 1974.1c13.83,-11.68 21.46,-10.98 34.54,0.73l0.78 18.38c-7.5,5.5 -12.53,11.78 -23.22,8.26 -13.32,-4.37 -13.42,-16.26 -12.1,-27.36zm-54.54 217.65c0.17,-26.56 0.02,-53.14 0.04,-79.71 0.01,-11.71 -0.94,-27.89 -0.16,-39 1.29,-18.14 5.35,-18.15 15.66,-27.93 7.72,-7.35 31.26,-34.87 39.5,-36.39 9.59,-1.77 19.11,5.26 31.32,-1.78 25.88,-14.91 4.73,-64.64 -28.05,-46.02 -15.54,8.83 -12.8,24.14 -9.71,43.2 -17.53,12.75 -30.76,29.08 -46.89,44.74 -16.61,16.12 -10.01,41.06 -10.05,84.3l-0.02 52.79c-8.49,13.85 -16.24,5.17 -18.24,25.03 -1.51,15.04 7.06,24.67 21.25,25.14 25.53,0.85 36.69,-33.62 5.34,-44.37z"/>
      <path class="fil0" d="M1814.1 2644.53c-22.37,8.35 -33.97,3.1 -32.47,-23.01 24.69,-20.29 41.88,-4.73 32.47,23.01zm-18.01 16.46c0.22,92.69 -13.54,67.2 55.45,134.11 18.97,18.4 1.53,5.19 8.31,29.77 7.16,25.94 51.13,17.82 42.98,-14.32 -6.49,-25.6 -25.68,-5.83 -41.55,-18.35 -5.05,-3.99 -53.61,-51.24 -56,-61.11l-0.36 -66.59c3.62,-15.63 -2.83,-1.79 11.2,-14.47 42.82,-38.7 -46.69,-70.84 -43.21,-17.33 0.54,8.31 2.71,12.37 8.42,17.64l14.77 10.64z"/>
      <path class="fil0" d="M1940.49 1944.34c-25.57,12.37 -43.27,-6.91 -31.04,-24.18 10.38,-14.67 39.73,-10.02 31.04,24.18zm189.15 -84.47c30.31,39.9 61.67,7.86 36.23,-25.78 -25.95,-2.91 -23.79,0.11 -36.23,16.7 -28,1.46 -56.37,0.54 -84.45,0.5 -52.92,-0.08 -38.25,-8.84 -86.35,40.75 -20.02,20.64 -12.98,14.78 -24.43,14.22 -49.01,-2.43 -36.46,34.38 -31.22,41.46 13.65,18.41 48.82,12.97 47.67,-18.41 -0.91,-24.74 -14.04,-4.5 28.97,-48.04 25.19,-25.51 14.95,-21.75 61.83,-21.63 29.31,0.07 58.7,-0.53 87.98,0.24z"/>
      <path class="fil0" d="M1633.96 1100.74c3.29,40.43 -30.11,32.06 -34.62,17.75 -4.04,-12.79 3.25,-22.07 11.63,-24.66 9.85,-3.05 15.81,2.82 22.99,6.92zm-0.47 33.39c17.24,14.44 32.2,34.45 49.06,49.14 16.55,14.43 67.89,7.09 95.22,7.07 18.1,7.18 4.9,21.38 39.38,16.99 12.56,-12.47 19.71,-29.56 1.51,-40.59 -26,-15.76 -23.29,15.25 -47.93,15.23 -89.67,-0.05 -68.7,6.7 -107.67,-31.98 -3.68,-3.65 -17.77,-16.79 -19.28,-19.59 -7.48,-13.88 5.7,-12.86 -3.22,-31.49 -9.88,-20.63 -43.95,-18.95 -49.47,3.92 -7.45,30.9 19.98,38.43 42.41,31.32z"/>
      <path class="fil0" d="M1886.01 2450.44c-12.92,-16.32 2.48,-46.34 23.42,-30.41 16.3,12.39 9.38,38.43 -23.42,30.41zm31.94 6.8c6.1,8.8 39.11,43 48.41,50.3 17.31,13.59 66.89,6.08 92.92,6.07 7.2,1.08 26.07,33.83 46.8,11.14 14.18,-15.53 1.44,-44.46 -24.98,-36.63 -18.4,5.44 -5.37,10.97 -19.58,16.14 -5.63,2.04 -26.59,0.96 -33.88,0.93 -52.8,-0.28 -42,11.19 -97.16,-46.38 -13.75,-14.36 -5.79,-5.59 -5.46,-23.18 0.24,-12.96 -4.41,-20.44 -13.54,-24.82 -41.52,-19.88 -66.59,62.56 6.49,46.45z"/>
      <path class="fil0" d="M2157.8 1639.16c-22.12,1.46 -28.84,-34.71 -3.16,-37.03 27.18,-2.47 24.9,35.59 3.16,37.03zm-212.56 -86.13c4.22,12.27 15.46,20.14 31.75,12.95 30.73,-13.59 -29.59,-16.61 82.57,-16.16 27.55,0.12 25.98,8.9 55.99,38.02 15.19,14.73 15.8,8.93 14.95,28.76 -1.66,38.86 41.84,37.42 50.37,14.98 5.45,-14.32 -0.69,-27.88 -9.06,-33.3 -20.53,-13.31 -22.65,4.91 -37.28,-4.86 -11.58,-7.74 -38.4,-43.35 -49.59,-48.94 -21.63,-10.81 -67.87,4.7 -91.38,-3.96 -11.23,-4.14 -2.97,-4.24 -12.45,-11.97 -6.51,-5.32 -9.51,-6.61 -19.79,-4.66 -13.19,2.5 -20.89,15.16 -16.08,29.13z"/>
      <path class="fil0" d="M2454.06 2930.71c9.23,32.94 -19.24,37.77 -29.3,26.34 -14.78,-16.78 1.89,-40.19 29.3,-26.34zm-180.14 -57.39c91.18,-1.27 73.55,-12.89 116.58,29.99 7.59,7.57 20.59,17.02 22.46,25.76 2.5,11.68 -7.62,21.58 8.17,35.07 42.75,36.5 72.26,-67.18 0.58,-43.02 -77.78,-74.61 -30.35,-53.55 -147.79,-56.51 -8.63,-9.37 -9.36,-19.67 -27.87,-17.84 -12.47,1.23 -21.36,11.15 -20.01,24.69 1.12,11.18 9.92,20.93 23.08,20.43 13.5,-0.5 17.36,-10.49 24.8,-18.6z"/>
      <path class="fil0" d="M1584.24 1587.12c-26.94,4.1 -29.34,-34.08 -6.2,-36.49 22.88,-2.37 27.97,33.17 6.2,36.49zm-165.39 -88.51c15.25,0.05 30.51,0.07 45.75,-0.01 49.12,-0.25 35.4,-3.65 81.84,42.67 9.08,9.07 7.55,4.34 8.25,14.27 1.03,14.59 -5.62,26.02 8.74,35.52 29.1,19.26 58.38,-21.08 35.08,-42.27 -10.91,-9.92 -26,-4.17 -39.49,-2.58 -4.72,-7.51 -39.95,-44.31 -48.01,-50.56 -14.01,-10.86 -68.88,-5.43 -92.16,-5.43 -15.73,-6.48 -1.24,0.06 -11.99,-10.27 -33.86,-32.54 -60.25,34.12 -19.28,37.05 20.26,1.45 15.53,-11.88 31.27,-18.4z"/>
      <path class="fil0" d="M2240.1 1435.63l-2.14 -21.01c43.39,-37.66 48.64,56.29 2.14,21.01zm18.95 -41.42c-0.06,-117 10.34,-57.53 -59.13,-137.23 -12.94,-14.84 6.3,-15.3 -8.08,-33.98 -19.58,-25.47 -58.03,11.26 -32,32.01 26.97,21.48 6.67,-30.3 83.53,57.28 11.03,12.57 7.38,23.01 7.32,43.22l-0.44 35.16c-4.66,19.19 -26.43,13.75 -20.42,40.47 6.72,29.87 54.67,26.48 52.5,-8.73 -0.55,-8.97 -2.08,-11.96 -8.36,-17.67l-14.91 -10.53z"/>
     </g>
    </g>
   </g>
   <path class="fil1" d="M2027.6 544.49c819.1,0 1483.11,664.02 1483.11,1483.11 0,819.1 -664.02,1483.11 -1483.11,1483.11 -819.1,0 -1483.11,-664.02 -1483.11,-1483.11 0,-819.1 664.02,-1483.11 1483.11,-1483.11z"/>
   <path class="fil2" d="M2027.6 526.85c414.41,0 789.61,168 1061.18,439.57 271.57,271.57 439.57,646.77 439.57,1061.18 0,414.41 -168,789.61 -439.57,1061.18 -271.57,271.57 -646.77,439.57 -1061.18,439.57 -414.41,0 -789.61,-168 -1061.18,-439.57 -271.57,-271.57 -439.57,-646.77 -439.57,-1061.18 0,-414.41 168,-789.61 439.57,-1061.18 271.57,-271.57 646.77,-439.57 1061.18,-439.57zm1036.25 464.5c-265.19,-265.19 -631.56,-429.23 -1036.25,-429.23 -404.68,0 -771.06,164.04 -1036.25,429.23 -265.19,265.19 -429.23,631.56 -429.23,1036.25 0,404.68 164.04,771.06 429.23,1036.25 265.19,265.19 631.56,429.23 1036.25,429.23 404.68,0 771.06,-164.04 1036.25,-429.23 265.19,-265.19 429.23,-631.56 429.23,-1036.25 0,-404.68 -164.04,-771.06 -429.23,-1036.25z"/>
   <path class="fil3" d="M2027.6 588.57c397.37,0 757.13,161.08 1017.54,421.49 260.41,260.41 421.49,620.18 421.49,1017.54 0,397.37 -161.08,757.13 -421.49,1017.54 -260.41,260.41 -620.18,421.49 -1017.54,421.49 -397.37,0 -757.13,-161.08 -1017.54,-421.49 -260.41,-260.41 -421.49,-620.18 -421.49,-1017.54 0,-397.37 161.08,-757.13 421.49,-1017.54 260.41,-260.41 620.18,-421.49 1017.54,-421.49zm892.86 546.18c-228.49,-228.49 -544.17,-369.82 -892.86,-369.82 -348.69,0 -664.37,141.33 -892.86,369.82 -228.49,228.49 -369.82,544.17 -369.82,892.86 0,348.69 141.33,664.37 369.82,892.86 228.49,228.49 544.17,369.82 892.86,369.82 348.69,0 664.37,-141.33 892.86,-369.82 228.49,-228.49 369.82,-544.17 369.82,-892.86 0,-348.69 -141.33,-664.37 -369.82,-892.86z"/>
   <g id="_1782250396944">
    <path class="fil4" d="M2439.82 1748.99l137.65 137.65 -344.85 344.85 -137.65 -137.65 344.85 -344.85zm-1191.03 254.43l468.3 468.3 89.15 -89.14 137.64 137.64 -89.14 89.15 -137.65 137.65 -137.65 -137.65 -610.85 -610.85 280.21 4.9z"/>
    <polygon class="fil5" points="2253.25,1553.3 1815.88,1990.68 2331.99,2506.79 2806.41,2032.38 3086.61,2027.48 2469.64,2644.45 2331.99,2782.1 2194.34,2644.45 1678.22,2128.33 1540.57,1990.68 1678.22,1853.03 2258.15,1273.11 "/>
   </g>
   <path class="fil3 str0" d="M366.95 2229.8c-3.38,-27.29 -27.45,-46.06 -54.34,-42.73 -27.3,3.38 -46.07,27.45 -42.69,54.75 3.28,26.46 27.4,45.66 54.71,42.27 26.88,-3.33 45.6,-27.82 42.32,-54.29zm103.14 -501.26l8.29 -31.08 -222.29 -141.48 262.98 -3.58 8.92 -31.78 -262.21 -160.59 -8.57 30.56 231.38 135.67 -269.68 0.84 -8.91 31.77 229.33 143.01 -268.08 -4.87 -8.58 30.56 307.42 0.96zm-38.74 -690.74l-77.14 133.83 256.67 147.93 77.14 -133.83 -21.26 -12.26 -62.34 108.16 -97.17 -56.01 56 -97.16 -21.26 -12.26 -56 97.16 -95.7 -55.16 62.34 -108.17 -21.26 -12.25zm387.59 -154.45c26.85,23.29 26.51,56.62 -1.5,88.9l-46.32 53.4 -87.28 -75.72 45.5 -52.43c27.73,-31.97 62.74,-37.45 89.6,-14.15zm-107.64 -83.88c24.93,21.63 25.57,51.89 -0.78,82.26l-45.21 52.11 -79.91 -69.34 44.37 -51.15c28.01,-32.28 57.54,-34.68 81.53,-13.88zm129.3 63.44c-28.14,-24.41 -68.62,-24.24 -94.73,-3.19 12.5,-26.69 12.29,-59.37 -17.13,-84.89 -31.33,-27.18 -75.67,-26.44 -116.45,20.54l-65.17 75.12 223.45 193.88 67.11 -77.36c40.77,-46.99 36.47,-94.99 2.91,-124.11zm263.59 -219c-68.04,-86.48 -163.32,55.26 -216.18,-11.93 -21.19,-26.94 -10.35,-59.7 17.19,-80.83 32.53,-25.05 63.86,-17.4 79.34,-3.2l25.28 -19.88c-29.11,-28.79 -75.08,-32.47 -119.33,2.34 -44.9,35.33 -53.83,84.9 -25.56,120.82 68.82,87.47 162.53,-56.27 216.44,12.26 18.85,23.95 14.8,57.82 -17.47,83.22 -37.58,29.56 -70.21,17.54 -87.39,-0.18l-24.6 19.35c29.32,34.55 80.86,37.08 127.43,0.44 49.23,-38.73 49.71,-90.81 24.85,-122.41zm581.29 -463.66l-150.51 34.73 66.62 288.66 150.51 -34.74 -5.52 -23.91 -121.65 28.08 -25.22 -109.29 109.28 -25.22 -5.52 -23.91 -109.28 25.22 -24.84 -107.63 121.65 -28.07 -5.52 -23.91zm212.17 262.54l29.6 0.84 6.58 -232.26 97.49 235.2 21.57 0.61 110.67 -230.15 -6.6 233.09 29.61 0.84 8.26 -291.9 -31.73 -0.9 -120.11 249.78 -105.8 -256.17 -31.29 -0.89 -8.26 291.91zm512.82 -106.98l32.24 -114.91 57.45 16.12c48.08,13.49 60.88,39.94 50.6,76.61 -9.83,35.05 -34.75,51.8 -82.84,38.31l-57.45 -16.13zm169.63 -13.96c13.15,-46.86 -7.17,-90.37 -73.18,-108.88l-85.99 -24.11 -79.9 284.84 28.52 8 34.06 -121.43 57.45 16.12c66.83,18.75 106.11,-8.48 119.03,-54.53zm388.85 244.63c40.11,-78.83 12.31,-163.25 -62,-201.06 -73.94,-37.61 -158.92,-10.57 -199.02,68.26 -40.3,79.22 -11.93,163.45 62,201.07 74.31,37.8 158.72,10.94 199.02,-68.27zm-233.87 -118.98c35.11,-69.02 101.5,-88.44 159.97,-58.69 58.46,29.74 81.86,94.84 46.74,163.86 -35.11,69.03 -101.68,88.83 -160.16,59.07 -58.45,-29.74 -81.66,-95.21 -46.55,-164.24zm535.55 287.93c-23.57,27.17 -57.08,32.85 -93.52,1.23l-45.08 -39.11 80.72 -93.02 44.76 38.83c37.71,32.72 37.52,63.94 13.12,92.07zm-63.88 -169.18l-193.88 223.45 22.37 19.4 80.99 -93.34 41.24 35.78 -25.68 141.32 26.84 23.29 24.84 -144.86c43.82,25.69 83.55,14.79 110.17,-15.91 31.9,-36.76 32.02,-85.98 -19.76,-130.91l-67.13 -58.24zm44.41 460.34l18.33 23.27 232.49 -182.92 -18.32 -23.28 -232.5 182.93zm204.48 92.67c-67.76,39.22 -74.05,97.62 -43.95,149.64 30.1,52.02 83.88,75.65 151.65,36.43l160.8 -93.07 -14.85 -25.64 -161.17 93.28c-53.12,30.74 -90.41,16.16 -113.52,-23.77 -23.1,-39.93 -17.61,-80.27 35.5,-111.01l161.18 -93.29 -14.84 -25.63 -160.81 93.07zm73.38 384.65l6.66 28.86 226.4 -52.25 -202.99 153.7 4.86 21.02 250.62 49.01 -227.21 52.44 6.66 28.87 284.55 -65.68 -7.14 -30.92 -272.02 -53.2 221.19 -167.02 -7.05 -30.51 -284.54 65.67zm159.61 722.88c-3.38,27.29 15.39,51.37 42.26,54.7 27.31,3.38 51.39,-15.39 54.77,-42.68 3.28,-26.46 -15.44,-50.96 -42.75,-54.35 -26.87,-3.33 -51,15.87 -54.28,42.33z"/>
   <path class="fil3" d="M2027.6 0c559.89,0 1066.8,226.96 1433.73,593.87 366.91,366.92 593.87,873.83 593.87,1433.73 0,559.89 -226.96,1066.8 -593.87,1433.73 -366.92,366.91 -873.83,593.87 -1433.73,593.87 -559.89,0 -1066.8,-226.96 -1433.73,-593.87 -366.91,-366.92 -593.87,-873.83 -593.87,-1433.73 0,-559.89 226.96,-1066.8 593.87,-1433.73 366.92,-366.91 873.83,-593.87 1433.73,-593.87zm1383.86 643.74c-354.16,-354.15 -843.43,-573.2 -1383.86,-573.2 -540.43,0 -1029.7,219.05 -1383.86,573.2 -354.15,354.16 -573.2,843.43 -573.2,1383.86 0,540.43 219.05,1029.7 573.2,1383.86 354.16,354.15 843.43,573.2 1383.86,573.2 540.43,0 1029.7,-219.05 1383.86,-573.2 354.15,-354.16 573.2,-843.43 573.2,-1383.86 0,-540.43 -219.05,-1029.7 -573.2,-1383.86z"/>
   <g id="_1782250399696">
    <path class="fil3" d="M487.99 2926.63l-10.72 1.57c-4.97,-5.43 -8.64,-10.41 -10.99,-14.89 -2.51,-4.79 -5.44,-11.28 -8.8,-19.47 -3.18,-7.83 -5.9,-13.9 -8.19,-18.28 -3.25,-6.2 -8.97,-15.35 -17.14,-27.38l9.15 -1.54c7.44,8.25 13.23,12.84 17.38,13.79 4.1,0.98 18.41,-1.35 42.88,-6.94 24.48,-5.6 40.12,-10.2 46.94,-13.78 13.65,-7.15 26.25,-17.14 37.82,-29.9 11.56,-12.77 19.7,-25.46 24.44,-37.96 -13.33,-12.13 -24.13,-20.07 -32.3,-24.01 -8.22,-3.93 -16.89,-6.02 -25.95,-6.25 -9.08,-0.22 -16.27,1.02 -21.58,3.8 -5.15,2.71 -8.77,7.59 -10.76,14.67 -1.75,6.04 -4.12,9.86 -7.04,11.4 -2.66,1.39 -5.25,1.75 -7.83,1.03 -2.53,-0.65 -4.44,-2.17 -5.67,-4.52 -2.18,-4.16 -2.01,-8.77 0.54,-13.76 3.58,-6.85 9.29,-12.3 17.11,-16.39 11.35,-5.95 23.6,-8.39 36.9,-7.33 13.25,1.09 26.19,5.52 38.88,13.28 7.42,4.54 17.32,13.16 29.73,25.96 4.53,4.73 8.84,8.9 12.91,12.48 -5.76,13.97 -14.24,27.16 -25.38,39.71 -11.12,12.47 -26.46,25.09 -46.03,37.79 49.68,-1.94 87.11,1.34 112.19,9.97 25.17,8.65 40.53,18.32 46.17,29.09 1.75,3.33 2.27,6.59 1.46,9.73 -0.82,3.15 -2.66,5.45 -5.48,6.92 -2.91,1.53 -5.96,1.53 -9.1,-0.02 -3.13,-1.54 -6.81,-5.78 -11.1,-12.69 -4.26,-6.87 -8.56,-11.65 -12.92,-14.28 -8.72,-5.12 -22.13,-9.57 -40.19,-13.25 -18.06,-3.68 -39.23,-5.59 -63.49,-5.68 -24.27,-0.1 -48.1,2.56 -71.31,8.03 -23.27,5.49 -38.08,9.67 -44.49,12.5 1.89,5.12 4.06,10.02 6.51,14.7 3.74,7.13 8.9,14.46 15.45,21.9zm198.64 59.38c6.11,9.47 7.43,19.74 3.93,30.89 -3.46,11.13 -11.89,21.04 -25.32,29.71 -21.38,13.81 -45.53,18.69 -72.28,14.62 -26.76,-4.06 -45.52,-14.48 -56.4,-31.31 -6.66,-10.33 -8.69,-20.84 -6.01,-31.52 2.69,-10.7 9.88,-19.81 21.53,-27.34 20.25,-13.08 42.7,-19.37 67.37,-18.87 30.74,0.8 53.14,12.08 67.17,33.82zm-18.94 -5.28c-5.29,-8.2 -16.28,-12.31 -32.91,-12.4 -16.66,-0.11 -35.3,6.54 -55.91,19.83 -12.54,8.1 -20.87,16.86 -25.12,26.22 -3.05,6.88 -2.71,13.23 1.02,19.01 5.2,8.06 14.98,12.17 29.31,12.37 18.44,0.06 37.33,-6.12 56.64,-18.59 14.48,-9.34 23.55,-17.94 27.2,-25.81 3.65,-7.89 3.56,-14.76 -0.23,-20.63zm132.33 151.86l16.17 18.75 -56.28 27.01c-32.73,15.58 -50.98,24.94 -54.63,28.09 -1.65,1.42 -2.55,2.9 -2.75,4.39 -0.15,1.52 0.17,2.8 0.98,3.73 1.3,1.51 3.47,2.68 6.49,3.56 4.46,1.13 14.22,2.27 29.22,3.29l-1.12 8.43c-33.21,-1.79 -53.4,-6.83 -60.53,-15.11 -2.38,-2.77 -3.34,-6.04 -2.89,-9.85 0.4,-3.77 2.59,-7.35 6.5,-10.73 4.5,-3.88 11.32,-8.13 20.48,-12.7 -15.54,-0.11 -31.54,-2.92 -48.04,-8.56 -10.98,-3.74 -18.85,-8.36 -23.64,-13.93 -2.65,-3.07 -3.66,-6.31 -3.16,-9.77 0.51,-3.47 2.9,-7.09 7.27,-10.85 3.37,-2.92 7.38,-5.67 11.99,-8.24 6.48,-3.65 19.96,-10.24 40.57,-19.83 26.07,-12.25 41.21,-20.16 45.39,-23.77 2.45,-2.11 2.92,-4 1.43,-5.73 -1.35,-1.57 -3.99,-3.01 -7.86,-4.34 -3.91,-1.29 -11.68,-2.57 -23.39,-3.81l-0.29 -9.53c20.43,2.64 34.88,5.63 43.4,8.93 8.51,3.29 14.42,6.82 17.6,10.51 1.8,2.09 2.5,4.44 2.11,7.04 -0.45,2.62 -2.23,5.34 -5.48,8.14 -6.01,5.18 -23.51,14.76 -52.52,28.74 -26.03,12.66 -40.51,20.25 -43.49,22.82 -1.83,1.58 -2.89,3.5 -3.23,5.81 -0.25,2.32 0.16,4.14 1.35,5.52 4.18,4.85 14.14,8.3 29.86,10.26 15.78,2 29.97,-0.07 42.6,-6.14l65.89 -32.14zm-29.16 171.81l-18.64 -17.68 40.62 -25.31c19.92,-12.46 38.48,-24.58 55.73,-36.43 4.2,-2.98 6.72,-4.88 7.61,-5.82 1.82,-1.92 1.82,-3.7 -0.02,-5.45 -1.27,-1.21 -4,-2.18 -8.19,-2.9 -4.25,-0.71 -12.99,-0.9 -26.16,-0.51l0.3 -8c16.19,-1.01 30.35,0.12 42.45,3.42 12.06,3.25 20.22,6.95 24.49,11 1.49,1.42 2.36,2.89 2.57,4.38 0.25,1.53 -0.14,2.79 -1.11,3.81 -1.05,1.11 -4.31,3.44 -9.87,7.08l-26.79 17.3c20.95,-5.25 41.1,-7.52 60.57,-6.88 9.33,0.34 15.7,2.09 19.11,5.32 2.51,2.39 3.83,5.18 3.97,8.38 0.12,3.21 -0.85,5.86 -2.91,8.02 -2.15,2.27 -4.74,3.38 -7.86,3.42 -3.12,0.04 -8.95,-1.93 -17.5,-5.91 -8.17,-3.77 -15.55,-6 -22.17,-6.78 -6.68,-0.74 -15.14,-0.27 -25.49,1.34 -10.31,1.64 -18.5,3.77 -24.52,6.47 -6.05,2.7 -18.61,10.39 -37.65,22.94l-28.53 18.8zm184.79 168.02l6.66 -6.63c11.4,4.52 19.66,6.63 24.7,6.28 5.08,-0.33 10.99,-2.84 17.86,-7.53 6.88,-4.7 19.05,-15.63 36.63,-32.79 23.21,-22.66 41.16,-38.21 53.72,-46.68 19.06,-12.69 37.11,-19.53 54.25,-20.64 17.09,-1.12 31.59,2.11 43.51,9.67 7.65,4.86 12.87,10.88 15.67,18.09 2.79,7.14 2.87,12.82 0.22,16.99 -1.45,2.29 -3.5,3.77 -6.13,4.4 -2.63,0.63 -5.1,0.24 -7.33,-1.17 -2.88,-1.83 -5.18,-6 -6.93,-12.47 -1.99,-7.05 -3.89,-12.08 -5.63,-14.93 -1.76,-2.93 -3.83,-5.15 -6.26,-6.7 -2.78,-1.76 -6.07,-2.73 -9.73,-2.89 -5.15,-0.22 -11.81,1.27 -19.88,4.57 -8.13,3.26 -18.28,9.36 -30.43,18.22 -8.07,6.02 -20.2,16.69 -36.48,31.91 -25.76,24.36 -43.52,40.05 -53.4,47.15 -7.07,5.12 -13.97,8.75 -20.7,10.8 15.82,5.81 27.81,11.26 36.05,16.49 5.16,3.27 9.7,6.65 13.69,10.02 3.91,3.39 10.54,9.83 19.8,19.25 7.97,8.19 13.87,13.47 17.65,15.87 3.72,2.36 7.57,3.2 11.55,2.53 4.04,-0.65 6.96,-2.41 8.82,-5.34 1.17,-1.84 2.16,-4.83 2.93,-9 0.75,-3.92 1.64,-6.76 2.84,-8.65 1.67,-2.63 3.76,-4.16 6.25,-4.67 2.51,-0.57 4.97,-0.05 7.5,1.56 2.88,1.83 4.49,4.66 4.92,8.49 0.39,3.87 -0.85,8.02 -3.65,12.44 -5.36,8.44 -13.43,13.48 -24.3,15.14 -10.88,1.67 -22.22,-1.29 -34.13,-8.86 -5.91,-3.75 -13.27,-9.05 -21.98,-15.83 -29.59,-22.81 -49.22,-37.3 -58.88,-43.44 -14.26,-9.05 -27.35,-16.26 -39.34,-21.63zm387.61 51.78l11.32 3.22 -31.48 32.73c-12.53,13.05 -26.06,28.54 -40.55,46.53 -7.9,9.73 -12.64,16.21 -14.27,19.34 -1.62,3.13 -1.18,5.34 1.37,6.67 1.57,0.81 4.71,1.12 9.3,0.84 8.19,-0.45 16.57,-1.93 25.15,-4.43l1.81 8.49c-17.03,4.48 -27.73,7.01 -32.15,7.49 -8.83,1.06 -16.7,1.15 -23.67,0.18 -4.65,-0.62 -8.78,-1.84 -12.43,-3.73 -2.61,-1.36 -4.27,-3.02 -5.01,-4.92 -0.68,-1.87 -0.41,-4.05 0.79,-6.35 0.78,-1.51 2.28,-3.38 4.49,-5.61l16.78 -17.4c-14.22,5.94 -29.35,9.47 -45.36,10.71 -9.82,0.8 -17.88,-0.39 -24.08,-3.61 -5.95,-3.09 -9.36,-7.5 -10.37,-13.33 -1.35,-7.86 0.32,-16.33 5.03,-25.4 5.61,-10.8 14.73,-21.36 27.33,-31.64 12.67,-10.26 26.59,-18.33 41.9,-24.09 15.26,-5.8 29.57,-8.5 42.92,-8.07 10.25,0.42 21.84,3.97 34.79,10.69 3.28,1.7 6.46,3.62 9.59,5.77l6.81 -4.08zm-31.19 13.82c-4.91,-3.94 -9.27,-6.92 -13.02,-8.87 -9.14,-4.74 -18.42,-6.38 -27.88,-4.86 -9.46,1.52 -20.48,7.32 -33.12,17.4 -12.64,10.06 -22.34,21.63 -29.11,34.68 -3.6,6.95 -5.03,12.5 -4.27,16.8 0.75,4.3 3.05,7.41 6.8,9.36 7,3.62 16.48,3.71 28.44,0.31 11.99,-3.45 23.57,-11.35 34.71,-23.64l37.45 -41.17zm144.84 34.71c9.54,3.69 16.22,8.43 19.98,14.17 3.75,5.75 4.67,11.03 2.8,15.85 -1.13,2.91 -3.22,5.06 -6.24,6.35 -3.03,1.28 -6.08,1.35 -9.21,0.14 -2.02,-0.78 -3.61,-1.9 -4.78,-3.43 -1.12,-1.5 -2.36,-4.63 -3.76,-9.33 -2.54,-9.07 -6.33,-14.57 -11.49,-16.57 -4.38,-1.7 -8.93,-1.51 -13.62,0.52 -4.65,2.04 -7.98,5.6 -9.92,10.59 -1.7,4.38 -2.32,9.07 -1.77,14.01 0.54,4.94 3.39,13.67 8.5,26.18 6.95,17.2 8.24,31.43 3.84,42.78 -4.38,11.3 -13.05,19.34 -25.98,24.09 -12.95,4.76 -26.97,4.17 -42.15,-1.72 -12.77,-4.95 -21.25,-11.21 -25.44,-18.76 -4.18,-7.61 -4.83,-15.18 -1.9,-22.74 1.45,-3.73 3.79,-6.35 7.1,-7.9 3.32,-1.55 6.63,-1.65 10.09,-0.31 2.95,1.15 5.15,3.14 6.52,5.93 1.37,2.81 1.52,5.51 0.48,8.2 -0.43,1.1 -1.01,2.45 -1.84,4.08 -0.58,1.35 -1.1,2.53 -1.46,3.47 -1.38,3.56 -1.06,7.09 1.01,10.73 1.94,3.59 5.48,6.35 10.52,8.31 5.76,2.23 11.24,3.22 16.44,2.97 5.15,-0.28 9.72,-1.97 13.74,-5.01 4.02,-3.05 6.83,-6.57 8.36,-10.51 1.49,-3.84 1.83,-8.12 1.04,-12.91 -0.88,-4.74 -3.57,-13.1 -8.23,-25.12 -6.37,-16.73 -7.33,-30.84 -2.91,-42.24 4.06,-10.47 11.85,-18.04 23.38,-22.57 11.53,-4.55 23.8,-4.33 36.9,0.76zm107.57 8.14l29.43 -2.37 -25.03 43.21 33.73 9.7 -6.07 11.1 -34 -9.78 -30.3 50.92c-9.55,15.31 -15.21,26.27 -17.08,32.77 -0.86,3 -0.85,5.32 0.02,6.97 0.93,1.69 2.42,2.84 4.63,3.48 3.45,0.99 9.23,0.46 17.46,-1.59 10.75,-2.71 21.32,-6.28 31.65,-10.72l4.18 9.28c-29.42,11.3 -48.75,17.86 -58.1,19.56 -9.32,1.78 -16.46,1.94 -21.43,0.51 -4.06,-1.17 -6.86,-3.57 -8.37,-7.25 -1.52,-3.67 -1.32,-8.82 0.62,-15.54 2.29,-7.97 7.85,-19.45 16.73,-34.58l35.65 -60.81 -26.82 -7.72 6.4 -11.01 26.89 7.74 19.82 -33.87zm293.39 64.07l2.26 -7.26c12.51,-0.05 27.39,-1.4 44.64,-4.04 -5.89,12.35 -11.33,26.5 -16.31,42.39l-14.96 47.15c-10.72,34.03 -21.84,59.53 -33.32,76.41 9.7,2.62 18.31,4.21 25.86,4.79 20.04,1.52 37.77,-1.38 53.3,-8.63 15.47,-7.32 28.24,-18.74 38.2,-34.19 9.96,-15.51 15.71,-32.99 17.19,-52.46 1.94,-25.55 -3.95,-46.63 -17.66,-63.29 -13.72,-16.66 -32.58,-25.88 -56.67,-27.71 -20.29,-1.54 -39.76,1.83 -58.48,10.14 -18.73,8.24 -33.94,19.94 -45.64,35.02 -11.7,15.1 -18.09,30.17 -19.22,45.24 -1.11,14.66 4.51,25.92 16.89,33.81 3.53,2.34 5.75,4.28 6.75,5.83 1,1.55 1.39,3.41 1.23,5.57 -0.21,2.7 -1.44,5.02 -3.78,6.97 -2.26,1.95 -4.81,2.82 -7.56,2.61 -6.1,-0.46 -11.72,-4.9 -16.91,-13.37 -6.95,-11.85 -10,-23.63 -9.11,-35.41 1.5,-19.69 8.8,-38.3 21.92,-55.82 13.18,-17.45 30.63,-30.86 52.39,-40.18 21.8,-9.26 45.55,-12.93 71.16,-10.99 31.65,2.41 56.16,12.75 73.63,31.11 17.42,18.31 25.18,40.23 23.23,65.84 -1.79,23.68 -9.96,44.99 -24.54,63.92 -14.52,18.9 -31.36,31.87 -50.52,38.85 -19.11,7.04 -37.89,9.86 -56.29,8.46 -5.99,-0.45 -16.26,-1.82 -30.82,-4.1 -12.23,-1.88 -23.97,-3.24 -35.05,-4.08 -5.17,-0.39 -13.03,-0.88 -23.53,-1.43l4.63 -8.15c10.53,0.22 17.17,-0.17 19.83,-1.26 2.68,-1.03 5.07,-2.97 7.11,-5.83 3.74,-5.02 9.13,-16.11 16.21,-33.32l15.26 -44.11 17.98 -55.12c0.91,-2.69 1.44,-5.07 1.59,-7.01 0.14,-1.82 -0.33,-3.33 -1.36,-4.52 -1.1,-1.15 -2.64,-1.86 -4.68,-2.01 -0.83,-0.06 -2.42,0 -4.85,0.16zm254.53 -46.46c3.53,-0.06 6.49,1.06 8.83,3.3 2.33,2.31 3.51,5.28 3.58,8.93 0.1,5 -1.57,9.45 -4.97,13.33 -3.39,3.89 -7.24,5.85 -11.58,5.93 -3.41,0.07 -6.32,-1.05 -8.66,-3.42 -2.34,-2.36 -3.52,-5.45 -3.6,-9.33 -0.1,-5.12 1.47,-9.5 4.69,-13.16 3.28,-3.64 7.18,-5.49 11.71,-5.58zm-65.99 115.59l-7.52 -5.84c11.16,-12.87 21.43,-22 30.73,-27.53 9.31,-5.54 17.3,-8.34 23.88,-8.47 3.64,-0.07 6.48,0.7 8.46,2.24 1.97,1.56 3.01,3.71 3.06,6.47 0.07,3.29 -3.36,17.53 -10.28,42.59 -11.25,40.97 -16.83,65.65 -16.67,73.99 0.04,1.71 0.47,3.06 1.32,4.16 0.85,1.1 1.68,1.67 2.62,1.65 3.65,-0.07 12.91,-7.55 27.78,-22.41l6.83 6.57c-15.4,15.24 -26.72,25.04 -33.87,29.36 -7.16,4.31 -12.99,6.48 -17.57,6.57 -4.06,0.08 -7.26,-1.15 -9.67,-3.63 -2.4,-2.48 -3.63,-5.99 -3.72,-10.52 -0.28,-14.34 7.67,-49.59 23.85,-105.7 0.77,-2.66 1.13,-5.02 1.09,-7.08 -0.04,-2.29 -1.13,-3.45 -3.18,-3.41 -2.29,0.05 -4.93,1.04 -7.83,2.93 -2.89,1.93 -9.37,7.94 -19.33,18.07zm218.95 -54.14l13.31 -4.25c-6.3,27.42 -11.83,54.83 -16.7,82.32 -3.58,19.61 -5.82,35.93 -6.78,48.91 -0.51,6.47 -0.48,14.66 0.15,24.51 1.02,16.55 0.21,29.93 -2.42,40.27 -3.74,14.5 -11.85,26.48 -24.26,36.09 -12.48,9.62 -27.63,15.08 -45.63,16.44 -15.41,1.17 -27.81,-1.55 -37.22,-8.14 -9.4,-6.6 -14.49,-14.59 -15.21,-23.95 -0.7,-9.32 2.22,-18.22 8.7,-26.78 4.82,-6.5 15.29,-14.66 31.4,-24.48 8.1,-5.1 15.73,-10.27 22.8,-15.59 -8.11,4.97 -14.57,7.65 -19.25,8.01 -4.28,0.32 -8.18,-1.39 -11.71,-5.07 -3.58,-3.68 -5.63,-8.83 -6.12,-15.34 -1.6,-21.03 3.1,-42.39 14.01,-64.14 10.96,-21.69 24.84,-38.43 41.7,-50.15 10.36,-7.21 23.71,-11.47 40.06,-12.71 3.23,-0.24 7.17,-0.48 11.87,-0.67l1.3 -5.28zm-17.26 26.53c-5.53,-0.58 -10.44,-0.73 -14.65,-0.41 -10.85,0.82 -19.95,4.4 -27.31,10.74 -7.3,6.33 -13.19,16.5 -17.68,30.45 -6.21,19.81 -8.81,36.22 -7.81,49.36 0.41,5.39 2.28,9.79 5.55,13.25 3.33,3.46 6.87,5.03 10.68,4.74 4.51,-0.34 10.03,-3.01 16.43,-7.92 6.41,-4.97 11.5,-10.89 15.27,-17.9 3.78,-7.01 7.31,-18.83 10.52,-35.46l9.01 -46.85zm-16.14 95.73c-7.27,7.56 -21.43,19.89 -42.48,36.88 -18.64,14.74 -29.92,25.2 -33.99,31.4 -4.01,6.26 -5.75,12.76 -5.25,19.38 0.49,6.51 3.81,12.15 10.01,16.93 6.2,4.77 13.43,6.82 21.69,6.19 7.8,-0.59 15.21,-3.1 22.24,-7.46 7.04,-4.43 13.01,-10.43 17.91,-18.11 4.9,-7.68 8.03,-16.17 9.39,-25.46 1.36,-9.36 1.55,-21.52 0.52,-36.66 -0.14,-3.35 -0.13,-11.01 -0.04,-23.09zm137.05 -217.68c3.48,-0.6 6.57,0.06 9.22,1.93 2.66,1.92 4.27,4.69 4.89,8.29 0.85,4.92 -0.13,9.57 -2.9,13.92 -2.77,4.36 -6.27,6.87 -10.56,7.61 -3.36,0.58 -6.4,-0.08 -9.08,-2.08 -2.66,-1.98 -4.3,-4.86 -4.96,-8.68 -0.87,-5.04 0.02,-9.61 2.65,-13.71 2.69,-4.1 6.27,-6.51 10.74,-7.28zm-47.81 124.22l-8.32 -4.65c9.09,-14.39 17.88,-24.97 26.23,-31.85 8.36,-6.87 15.84,-10.85 22.33,-11.97 3.59,-0.62 6.51,-0.28 8.7,0.94 2.18,1.24 3.53,3.22 4,5.94 0.56,3.24 -0.68,17.83 -3.74,43.65 -4.94,42.2 -6.73,67.43 -5.31,75.66 0.29,1.68 0.92,2.94 1.93,3.91 1,0.96 1.9,1.39 2.83,1.23 3.6,-0.62 11.63,-9.4 24.09,-26.34l7.74 5.46c-12.93,17.39 -22.64,28.78 -29.05,34.13 -6.43,5.34 -11.87,8.38 -16.39,9.15 -4,0.7 -7.34,-0.04 -10.1,-2.13 -2.74,-2.09 -4.5,-5.37 -5.27,-9.83 -2.44,-14.14 0.11,-50.18 7.65,-108.09 0.36,-2.75 0.36,-5.14 0.01,-7.17 -0.39,-2.26 -1.63,-3.24 -3.66,-2.89 -2.26,0.39 -4.71,1.77 -7.3,4.07 -2.57,2.35 -8.06,9.27 -16.39,20.78zm127.32 -95.97l23.68 -17.64 1.74 49.9 33.72 -9.7 0.76 12.63 -34 9.78 1.37 59.23c0.05,18.04 1.08,30.34 2.95,36.83 0.86,3 2.1,4.96 3.71,5.9 1.68,0.94 3.57,1.12 5.77,0.49 3.45,-0.99 8.07,-4.52 13.96,-10.62 7.66,-8.01 14.73,-16.65 21.11,-25.89l8.47 5.64c-18.93,25.19 -31.81,41.02 -38.84,47.44 -6.94,6.47 -12.91,10.39 -17.89,11.82 -4.06,1.17 -7.71,0.62 -10.94,-1.69 -3.23,-2.31 -5.8,-6.77 -7.73,-13.5 -2.29,-7.97 -3.69,-20.65 -4.2,-38.18l-2.1 -70.46 -26.82 7.71 -0.43 -12.73 26.89 -7.73 -1.19 -39.23zm206.93 -40.48l10.23 -5.82 1.29 45.4c0.52,18.08 2.09,38.59 4.76,61.53 1.41,12.45 2.71,20.37 3.8,23.73 1.1,3.35 2.99,4.59 5.72,3.69 1.68,-0.54 4.11,-2.57 7.12,-6.03 5.42,-6.16 10.23,-13.18 14.47,-21.05l7.33 4.66c-8.74,15.29 -14.45,24.69 -17.2,28.18 -5.43,7.04 -10.88,12.72 -16.47,17.02 -3.7,2.88 -7.46,4.97 -11.37,6.25 -2.8,0.91 -5.15,0.93 -7.02,0.12 -1.82,-0.82 -3.18,-2.55 -3.98,-5.01 -0.53,-1.61 -0.81,-3.99 -0.85,-7.14l-0.66 -24.15c-5.72,14.3 -13.81,27.58 -24.14,39.86 -6.31,7.57 -12.81,12.48 -19.45,14.65 -6.37,2.08 -11.91,1.42 -16.78,-1.95 -6.55,-4.54 -11.41,-11.67 -14.59,-21.38 -3.78,-11.57 -4.93,-25.47 -3.41,-41.67 1.56,-16.23 5.56,-31.82 12.17,-46.78 6.56,-14.94 14.67,-27.05 24.33,-36.27 7.48,-7.02 18.14,-12.79 32,-17.33 3.52,-1.14 7.11,-2.06 10.84,-2.79l1.86 -7.72zm-12.01 31.93c-6.25,0.75 -11.43,1.76 -15.45,3.07 -9.78,3.2 -17.46,8.67 -23,16.49 -5.55,7.81 -9.14,19.73 -10.81,35.81 -1.68,16.07 -0.23,31.11 4.33,45.08 2.43,7.43 5.39,12.35 8.99,14.82 3.6,2.48 7.42,3.02 11.45,1.7 7.49,-2.44 14.2,-9.15 20.15,-20.06 5.94,-10.97 8.42,-24.76 7.46,-41.33l-3.12 -55.57zm163.35 12.2l7.97 3.37c-4.02,12.92 -9.87,25.68 -17.53,38.3 -7.71,12.64 -15.2,20.6 -22.37,23.84 -3.27,1.48 -6.45,1.44 -9.66,-0.09 -3.2,-1.52 -5.8,-4.41 -7.73,-8.7 -3.8,-8.41 -8.43,-27.21 -13.89,-56.56l-14.22 -76.59c-5.07,-27.63 -7.48,-46.68 -7.12,-57.03 0.67,-15.79 5.3,-29.93 13.93,-42.41 8.62,-12.48 19.55,-21.67 32.68,-27.6 4.49,-2.03 8.52,-2.57 12.03,-1.51 3.56,1.04 6.04,3.09 7.41,6.14 1.55,3.43 1.58,6.78 0.11,10.08 -1.53,3.34 -4.64,6.03 -9.4,8.18 -3.06,1.38 -7.69,2.84 -13.86,4.33 -5.36,1.39 -10.11,3.02 -14.35,4.94 -4.23,1.91 -7.03,4.27 -8.43,7.03 -1.83,3.79 -2.19,10.29 -0.97,19.41 1.17,9.15 4.4,26.7 9.63,52.86l13.79 72.91c7.14,36.51 11.06,55.45 11.71,56.9 1.53,3.38 3.45,4.5 5.87,3.41 2.29,-1.03 5.01,-3.88 8.17,-8.6 6.11,-9.34 11.51,-20.22 16.23,-32.61zm286.19 -305.48l-6.94 5.45c-6.46,-10.34 -11.62,-17.87 -15.46,-22.76 -5.44,-6.94 -11.61,-11 -18.47,-12.12 -6.91,-1.09 -13.55,0.83 -19.92,5.83 -9.86,7.73 -15.63,18.09 -17.37,31.02 -1.69,12.99 0.96,23.9 8,32.87 3.77,4.82 8.21,8.37 13.24,10.68 5.08,2.3 13.77,4.23 26.18,5.77 22.42,2.6 38.35,5.86 47.84,9.86 9.44,3.94 16.84,9.28 22.09,15.99 7.73,9.85 12.2,21.74 13.32,35.57 1.17,13.87 -1.75,28.34 -8.82,43.44 -7.01,15.06 -17.04,27.7 -30.03,37.89 -12.82,10.05 -26.29,15.17 -40.39,15.38 -14.04,0.19 -23.99,-3.44 -29.86,-10.93 -3.12,-3.99 -4.58,-8.22 -4.33,-12.68 0.19,-4.41 1.87,-7.81 4.83,-10.13 3.06,-2.4 6.54,-3.19 10.45,-2.3 2.41,0.5 6.28,2.78 11.49,6.84 6.29,5.08 11.57,8.18 15.79,9.28 4.27,1.15 8.91,1.17 13.98,0.1 5.03,-1.11 9.7,-3.35 14,-6.73 12.91,-10.11 20.78,-23.31 23.55,-39.6 2.82,-16.33 0.08,-29.71 -8.23,-40.3 -2.83,-3.62 -6.26,-6.76 -10.25,-9.37 -4.05,-2.58 -9.46,-4.92 -16.18,-6.9 -4.69,-1.33 -13.94,-2.82 -27.75,-4.54 -13.58,-1.6 -22.48,-3.05 -26.6,-4.31 -6.01,-1.85 -11.29,-4.38 -15.85,-7.44 -4.57,-3.06 -8.46,-6.6 -11.65,-10.66 -6.46,-8.24 -10.22,-18.66 -11.25,-31.31 -1.03,-12.64 0.92,-24.83 5.86,-36.63 4.91,-11.84 12.98,-22.12 24.12,-30.87 5.6,-4.39 13.15,-8.96 22.67,-13.66 5.36,-2.79 9.99,-5.29 13.77,-7.52 2.61,7.44 5.36,14.19 8.39,20.23 2.96,6.06 9.56,17.62 19.77,34.55zm39.48 -78.07l12.72 -26.65 24.82 43.33 25.3 -24.31 6.56 10.82 -25.51 24.51 28.84 51.76c8.46,15.93 15.11,26.33 19.78,31.2 2.16,2.25 4.18,3.41 6.04,3.49 1.92,0.04 3.68,-0.68 5.33,-2.26 2.59,-2.49 5.03,-7.76 7.39,-15.91 3.05,-10.66 5.27,-21.59 6.61,-32.75l10.12 1.04c-4.99,31.11 -9.01,51.12 -12.23,60.07 -3.13,8.96 -6.58,15.21 -10.31,18.8 -3.05,2.93 -6.53,4.15 -10.47,3.61 -3.94,-0.53 -8.29,-3.29 -13.14,-8.33 -5.74,-5.98 -12.89,-16.56 -21.51,-31.82l-34.73 -61.34 -20.12 19.33 -6.32 -11.06 20.18 -19.38 -19.35 -34.14zm218.78 -40.94l9.26 1.01c0.11,38.83 -6.73,65.49 -20.56,80.08 -5.58,5.88 -11.87,8.51 -18.8,7.86 -6.96,-0.7 -14.84,-5.19 -23.63,-13.53 -17.78,-16.87 -30.3,-39.03 -37.63,-66.57 -8.48,-31.12 -4.74,-55.13 11.33,-72.06 5.58,-5.88 11.36,-8.98 17.26,-9.32 5.9,-0.31 11.44,1.95 16.6,6.85 5.42,5.14 8.94,12.03 10.62,20.76 1.68,8.72 0.79,20.59 -2.72,35.58 -1.89,7.44 -6.73,22.45 -14.58,45.08 3.79,4.97 7.69,9.4 11.79,13.29 5.88,5.58 10.91,8.56 15,8.87 4.12,0.36 7.87,-1.29 11.26,-4.86 3.24,-3.42 5.78,-8.06 7.74,-13.98 2.67,-7.92 4.98,-20.96 7.09,-39.06zm-59.38 26.72c6.73,-19.06 9.84,-35.23 9.37,-48.48 -0.49,-9.14 -3.08,-15.98 -7.81,-20.46 -3.54,-3.36 -7.3,-5.13 -11.2,-5.28 -3.88,-0.1 -7.25,1.31 -10.08,4.3 -2.92,3.07 -4.6,7.16 -5.01,12.28 -0.65,6.84 0.89,14.53 4.56,23.04 5.49,12.49 12.2,24.03 20.16,34.6zm51.71 -111.88l-9.56 0.96c-3.28,-15.99 -4.06,-29.82 -2.35,-41.61 1.79,-11.79 5.01,-20.65 9.7,-26.53 1.79,-2.26 3.74,-3.57 5.95,-3.98 2.13,-0.41 4.3,0.26 6.46,1.98 2.62,2.09 5.07,4.48 7.36,7.28 2.28,2.8 7.38,9.78 15.24,21.06 -2.81,-24.69 -3.86,-40.85 -3.09,-48.43 1.27,-12.82 4.66,-22.74 10.22,-29.73 3.63,-4.56 8.86,-6.7 15.71,-6.43 6.77,0.27 14.54,3.9 23.23,10.83 21.71,17.27 36.99,40.46 45.79,69.62 8.76,29.12 6.62,51.92 -6.49,68.38 -5.12,6.44 -12.03,11.53 -20.6,15.23l35.36 46.76c2.11,2.82 4.03,4.95 5.73,6.3 3.36,2.67 6.75,3.33 10.19,1.93 5.32,-2.06 13.65,-8.74 24.95,-20.02l5.23 7.02c-12.6,13.57 -22.18,24.48 -28.77,32.77 -6.81,8.55 -15.05,20.02 -24.73,34.48l-5.23 -7.03c4.68,-7.39 6.75,-13.86 6.17,-19.35 -0.6,-5.57 -4.05,-12.38 -10.38,-20.48l-82.85 -105.65c-15.38,-19.75 -24.13,-30.47 -26.29,-32.19 -2.35,-1.87 -4.41,-1.63 -6.17,0.58 -3.15,3.96 -3.36,16.03 -0.76,36.27zm85.27 23.67c12.77,-1.49 22.08,-5.95 28.04,-13.44 8.57,-10.77 7.69,-26.94 -2.62,-48.45 -10.31,-21.49 -23.43,-38.62 -39.39,-51.32 -5.16,-4.1 -9.94,-6.03 -14.44,-5.85 -4.45,0.22 -8.23,2.24 -11.31,6.11 -3.44,4.32 -5.21,10.88 -5.29,19.67 -0.13,13.57 1.32,25.15 4.24,34.69 2.21,6.87 7.88,16.26 17.15,28.21l23.61 30.36z"/>
    <path class="fil3" d="M3508.57 2967.56c2.39,-3.77 5.84,-6.03 10.28,-6.77 4.47,-0.79 8.92,0.22 13.23,2.96 6.26,3.97 10.22,8.59 11.87,13.88 1.69,5.25 1.08,10.15 -1.82,14.72 -2.4,3.77 -5.75,6.1 -9.99,6.96 -4.32,0.88 -8.51,0.04 -12.68,-2.61 -6.06,-3.85 -10.24,-9.01 -12.49,-15.45 -1.7,-4.78 -1.18,-9.31 1.6,-13.69zm55.68 -93.99c2.22,-3.88 5.56,-6.3 9.96,-7.24 4.43,-0.99 8.92,-0.19 13.35,2.35 6.43,3.68 10.61,8.11 12.49,13.33 1.94,5.16 1.55,10.09 -1.14,14.78 -2.22,3.88 -5.46,6.36 -9.66,7.41 -4.28,1.08 -8.5,0.43 -12.79,-2.03 -6.23,-3.56 -10.64,-8.53 -13.18,-14.86 -1.92,-4.69 -1.61,-9.25 0.97,-13.74zm49.48 -95.48c1.86,-4.06 4.97,-6.78 9.26,-8.12 4.32,-1.39 8.86,-1 13.51,1.13 6.74,3.07 11.3,7.1 13.66,12.12 2.4,4.96 2.46,9.91 0.22,14.83 -1.86,4.06 -4.86,6.83 -8.94,8.26 -4.17,1.47 -8.43,1.2 -12.92,-0.85 -6.54,-2.98 -11.38,-7.52 -14.49,-13.59 -2.34,-4.5 -2.45,-9.06 -0.3,-13.78z"/>
   </g>
  </g>
 </g>
</svg>
